<svg width="32" height="32" viewBox="0 0 32 32" fill="none" xmlns="http://www.w3.org/2000/svg">
<g clip-path="url(#clip0_709_2124)">
<path d="M20.7438 0.153121C20.4895 0.149569 20.2468 0.169199 20.0063 0.206246C19.0444 0.354431 18.239 0.702076 16.6657 0.971871C15.2207 1.21968 14.2402 0.860871 13.0157 0.549996C11.7913 0.239121 10.3047 0.0407913 8.46885 0.871871C8.02017 1.07607 7.86111 1.63352 8.13447 2.04375L10.972 6.29687C10.3679 6.87177 8.61785 8.57424 6.55947 11.3187C4.1114 14.5828 1.6001 18.8795 1.6001 23.2C1.6001 27.4404 3.69415 29.8629 6.5126 30.9469C9.33104 32.0309 12.8001 32 16.0001 32C19.2001 32 22.6692 32.0309 25.4876 30.9469C28.306 29.8629 30.4001 27.4404 30.4001 23.2C30.4001 18.8795 27.8888 14.5828 25.4407 11.3187C23.3823 8.57424 21.6323 6.87177 21.0282 6.29687L23.8657 2.04375C24.1424 1.62788 23.9746 1.06298 23.5157 0.865621C22.366 0.372958 21.5068 0.163774 20.7438 0.153121ZM20.2501 1.7875C20.6765 1.7218 21.3297 1.97809 21.8876 2.12812L19.572 5.6H12.4282L10.0876 2.0875C11.0076 1.8672 11.7824 1.88998 12.622 2.10312C13.7476 2.38891 15.1048 2.86377 16.9345 2.55C18.636 2.2582 19.5641 1.89318 20.2501 1.7875ZM12.3313 7.2H19.6688C19.9687 7.47973 21.9752 9.36886 24.1595 12.2812C26.5114 15.4171 28.8001 19.5205 28.8001 23.2C28.8001 26.9596 27.2942 28.5371 24.9126 29.4531C22.531 30.3691 19.2001 30.4 16.0001 30.4C12.8001 30.4 9.46915 30.3691 7.0876 29.4531C4.70604 28.5371 3.2001 26.9596 3.2001 23.2C3.2001 19.5205 5.4888 15.4171 7.84072 12.2812C10.025 9.36886 12.0315 7.47973 12.3313 7.2ZM16.6657 14.4062L16.3501 14.4281L16.0376 14.4781L15.7313 14.55L15.4313 14.6469L15.1376 14.7656L14.8563 14.9094L14.5845 15.075L14.3313 15.2594L14.0907 15.4625L13.8657 15.6875L13.6626 15.9281L13.4751 16.1812L13.3095 16.4531L13.1688 16.7344L13.047 17.025L12.9501 17.3281L12.8782 17.6344L12.8282 17.9469L12.8063 18.2625V18.5781L12.8313 18.8906L12.8845 19.2031H12.8813H11.2001V20.8031H13.1251L13.1188 21.1812L13.0876 21.5562L13.0313 21.9281L12.947 22.2969L12.8407 22.6594L12.7095 23.0125L12.5563 23.3562L12.3782 23.6875L12.1782 24.0062L11.9563 24.3125L12.972 25.5062L13.3063 25.3375L13.6532 25.1906L14.0063 25.0687L14.3657 24.9687L14.7345 24.8969L15.1032 24.8469L15.4751 24.8219H15.8501L16.2251 24.8469L16.5938 24.8969L16.9626 24.9719L17.322 25.0719L17.6751 25.1937L18.0188 25.3406L18.2657 25.4406L18.5188 25.5187L18.7782 25.5719L19.0438 25.5969L19.3095 25.6L19.5751 25.5781L19.8345 25.5281L20.0907 25.4562L20.3376 25.3594L20.5751 25.2406L20.8001 25.1L19.8845 23.7875L19.7501 23.8656L19.6063 23.9312L19.4563 23.975L19.3032 23.9969L19.147 24L18.9907 23.9844L18.8407 23.9469L18.6938 23.8906L18.3188 23.7281L17.9345 23.5875L17.5407 23.4687L17.1407 23.3719L16.7376 23.3L16.3313 23.25L15.9251 23.2219L15.5126 23.2187L15.1032 23.2406L14.697 23.2844L14.2938 23.35L14.4126 22.9969L14.5095 22.6406L14.5907 22.2781L14.6532 21.9125L14.697 21.5437L14.722 21.175L14.7282 20.8031H16.8001V19.2031H14.5282L14.4845 19.025L14.4313 18.7844L14.4063 18.5437L14.4032 18.3L14.4282 18.0594L14.4751 17.8219L14.5438 17.5875L14.6376 17.3625L14.7532 17.15L14.8907 16.95L15.047 16.7625L15.222 16.5937L15.4157 16.4437L15.6188 16.3125L15.8376 16.2062L16.0657 16.1187L16.3001 16.0562L16.5376 16.0156L16.7813 16.0031L17.0251 16.0125L17.2657 16.0469L17.5001 16.1062L17.7313 16.1906L17.9501 16.2937L18.1563 16.4219L18.3501 16.5687L18.5282 16.7344L18.6876 16.9187L18.8282 17.1156L18.947 17.3281L19.0438 17.55L19.1188 17.7812L20.6657 17.3687L20.572 17.0656L20.4532 16.7719L20.3126 16.4875L20.1501 16.2187L19.9688 15.9594L19.7657 15.7187L19.547 15.4937L19.3063 15.2844L19.0532 15.0969L18.7845 14.9281L18.5063 14.7844L18.2157 14.6594L17.9126 14.5625L17.6063 14.4844L17.297 14.4344L16.9813 14.4062H16.6657Z" fill="#3D3D3D"/>
</g>
<defs>
<clipPath id="clip0_709_2124">
<rect width="32" height="32" fill="white"/>
</clipPath>
</defs>
</svg>
