<?xml version="1.0" ?><svg fill="white" viewBox="0 0 24 24" xmlns="http://www.w3.org/2000/svg"><title/><g id="briefcase"><path d="M20.5,5H17A3.5,3.5,0,0,0,13.5,2h-3A3.5,3.5,0,0,0,7.05,5H3.5A1.5,1.5,0,0,0,2,6.5v9a.5.5,0,0,0,.5.5H3v4.5A1.5,1.5,0,0,0,4.5,22h15A1.5,1.5,0,0,0,21,20.5V16h.5a.5.5,0,0,0,.5-.5v-9A1.5,1.5,0,0,0,20.5,5Zm-10-2h3A2.5,2.5,0,0,1,16,5H8.05A2.5,2.5,0,0,1,10.5,3ZM20,20.5a.5.5,0,0,1-.5.5H4.5a.5.5,0,0,1-.5-.5V16h6v1.5a.5.5,0,0,0,.5.5h3a.5.5,0,0,0,.5-.5V16h6ZM11,17V14h2v3Zm10-2H14V13.5a.5.5,0,0,0-.5-.5h-3a.5.5,0,0,0-.5.5V15H3V6.5A.5.5,0,0,1,3.5,6h17a.5.5,0,0,1,.5.5Z"/></g></svg>