<?xml version="1.0" ?><!DOCTYPE svg  PUBLIC '-//W3C//DTD SVG 1.1//EN'  'http://www.w3.org/Graphics/SVG/1.1/DTD/svg11.dtd'><svg height="8.4666mm" style="shape-rendering:geometricPrecision; text-rendering:geometricPrecision; image-rendering:optimizeQuality; fill-rule:evenodd; clip-rule:evenodd" version="1.1" viewBox="0 0 846.66 846.66" width="8.4666mm" xml:space="preserve" xmlns="http://www.w3.org/2000/svg" xmlns:xlink="http://www.w3.org/1999/xlink"><defs><style type="text/css">
   <![CDATA[
    .fil0 {fill:white;fill-rule:nonzero}
   ]]>
  </style></defs><g id="Layer_x0020_1"><path class="fil0" d="M143.88 94.04l496.8 0c2.07,0 4.13,0.03 6.18,0.11 -25.53,-27.95 -61.33,-44.03 -99.33,-44.03l-476.06 0 0 661.04 51.68 0 0 -596.39c0,-11.45 9.28,-20.73 20.73,-20.73zm503.23 445.72c0,-36.78 -29.81,-66.59 -66.59,-66.59 -36.78,0 -66.6,29.81 -66.6,66.59 0,36.78 29.82,66.6 66.6,66.6 36.3,0 66.59,-29.34 66.59,-66.6zm0.72 84.54l37.92 72.92c12.57,24.18 -24.19,43.29 -36.77,19.11l-37.9 -72.89c-9.69,2.86 -19.95,4.39 -30.56,4.39 -59.68,0 -108.06,-48.39 -108.06,-108.07 0,-59.67 48.38,-108.05 108.06,-108.05 59.68,0 108.06,48.37 108.06,108.05 0,33.06 -14.97,63.99 -40.75,84.54zm-412.74 64.28c-27.27,0 -27.27,-41.47 0,-41.47l163.01 0c27.27,0 27.27,41.47 0,41.47l-163.01 0zm0 -139.73c-27.27,0 -27.27,-41.46 0,-41.46l163.01 0c27.27,0 27.27,41.46 0,41.46l-163.01 0zm0 69.87c-27.27,0 -27.27,-41.47 0,-41.47l163.01 0c27.27,0 27.27,41.47 0,41.47l-163.01 0zm0 -139.73c-27.27,0 -27.27,-41.46 0,-41.46l163.01 0c27.27,0 27.27,41.46 0,41.46l-163.01 0zm265.87 -247.43c-27.28,0 -27.28,-41.46 0,-41.46l188.23 0c27.28,0 27.28,41.46 0,41.46l-188.23 0zm0 137.79c-27.28,0 -27.28,-41.47 0,-41.47l188.23 0c27.28,0 27.28,41.47 0,41.47l-188.23 0zm0 -68.89c-27.28,0 -27.28,-41.47 0,-41.47l188.23 0c27.28,0 27.28,41.47 0,41.47l-188.23 0zm-250.34 -134.62l186.3 0c11.45,0 20.73,9.28 20.73,20.73l0 186.3c0,11.45 -9.28,20.73 -20.73,20.73l-186.3 0c-11.45,0 -20.74,-9.28 -20.74,-20.73l0 -186.3c0,-11.45 9.29,-20.73 20.74,-20.73zm165.56 41.46l-144.83 0 0 144.84 144.83 0 0 -144.84zm288.72 -101.07c66.97,26.44 111.76,91.38 111.76,163.79l0 547.26c0,11.45 -9.28,20.73 -20.73,20.73l-652.05 0c-11.45,0 -20.73,-9.28 -20.73,-20.73l0 -64.66 -72.42 0c-11.45,0 -20.73,-9.28 -20.73,-20.73l0 -702.51c0,-11.45 9.28,-20.73 20.73,-20.73l496.8 0c66.74,0 127.51,38.05 157.37,97.58zm-64.22 29.27l-476.07 0 0 661.04 610.58 0 0 -526.52c0,-73.94 -60.57,-134.52 -134.51,-134.52z"/></g></svg>