<svg width="36" height="36" viewBox="0 0 36 36" fill="none" xmlns="http://www.w3.org/2000/svg">
<path d="M18.4192 10.6379L13.464 10.6417L13.4639 7.33037C13.465 6.6399 13.6325 6.65869 14.3516 6.66218L15.2688 6.65931C15.2904 5.14654 16.3142 3.96918 17.8279 3.78603L17.9297 3.77886C18.7464 3.76066 19.4236 3.98231 20.019 4.55849C20.7068 5.22413 20.8483 5.77978 20.8597 6.66533L21.8167 6.66437C22.52 6.66459 22.7167 6.64592 22.7157 7.36524L22.7226 10.6369L18.4192 10.6379Z" fill="black"/>
<path d="M7.37399 11.3116L7.37703 9.95208C7.39413 8.99948 8.23681 8.14977 9.13422 7.94272C9.3572 7.89125 9.56988 7.89507 9.7969 7.89468L12.6002 7.90103L12.611 10.6361L10.3131 10.6388L10.3071 28.6217L25.8455 28.6216L25.848 10.6619C25.7919 10.635 25.7203 10.6432 25.6586 10.6418L23.5767 10.6372L23.5834 7.87488C23.8705 7.91386 24.167 7.89507 24.451 7.89524L26.0232 7.89625C26.299 7.89653 26.5965 7.87718 26.8687 7.9219C27.8508 8.08317 28.7782 8.93176 28.7957 9.95804L28.7961 28.7031C28.7959 28.9347 28.8127 29.1823 28.783 29.4118C28.6315 30.5855 27.6915 31.4278 26.4996 31.4355L9.87768 31.4385C9.69571 31.4388 9.49889 31.4535 9.319 31.4277C8.37265 31.292 7.51822 30.4512 7.38912 29.5001C7.36043 29.289 7.37438 29.0602 7.37422 28.8468L7.37399 11.3116Z" fill="black"/>
<path d="M11.6605 15.1458C11.458 14.9504 11.0515 14.6844 11.0405 14.3783C11.0302 14.0962 11.2493 13.8137 11.5423 13.8162C12.0133 13.8201 12.4107 14.3585 12.7132 14.6703C13.1297 14.1811 13.6462 13.757 14.1111 13.3135L14.6173 12.8213C14.792 12.6514 14.9189 12.5021 15.1662 12.4489C15.4829 12.4477 15.7435 12.6873 15.7655 13.0097C15.7882 13.344 15.349 13.6404 15.1326 13.8419L13.4814 15.4144C12.8621 16.0067 12.7458 16.2253 12.011 15.4897L11.6605 15.1458Z" fill="black"/>
<path d="M24.0331 14.6198L17.8761 14.6157C17.6321 14.6165 17.3725 14.635 17.1299 14.6114C16.6227 14.5619 16.4595 13.5904 17.2843 13.5064L23.9025 13.5068C24.0111 13.5069 24.1567 13.4928 24.2552 13.5422L24.2754 13.5532C24.7654 13.8144 24.7128 14.5448 24.0331 14.6198Z" fill="black"/>
<path d="M15.0357 21.4941C14.6386 21.4809 11.868 21.5198 11.7453 21.4589C11.4484 21.3117 11.4059 21.081 11.4055 20.7907L11.406 17.8321C11.408 17.782 11.4095 17.7301 11.4318 17.6843L11.4414 17.6659C11.5504 17.4504 11.6818 17.3756 11.9268 17.3563L14.016 17.3503C14.9812 17.3503 15.5256 17.0617 15.5236 18.23L15.5243 20.3944C15.5242 20.8319 15.6292 21.4034 15.0357 21.4941ZM12.5019 18.4597L12.4913 20.3936L14.4243 20.393L14.4297 18.4691C14.2443 18.4354 14.0172 18.4597 13.8276 18.4596L12.5019 18.4597Z" fill="black"/>
<path d="M24.1216 20.1617L17.8198 20.164C17.589 20.1639 17.3422 20.1809 17.1137 20.1562C16.4334 20.0829 16.4811 19.139 17.1782 19.0617L23.3726 19.0619C23.6244 19.0618 23.8838 19.0483 24.1347 19.0622C24.7255 19.0947 24.8381 20.0353 24.1216 20.1617Z" fill="black"/>
<path d="M15.1102 26.4703L12.1504 26.459C12.0221 26.4592 11.849 26.4808 11.7302 26.4315L11.707 26.4208C11.6039 26.374 11.5204 26.2994 11.4672 26.1984L11.4556 26.1754C11.3954 26.0607 11.4076 25.9378 11.4073 25.8118L11.4053 23.6299C11.4049 23.1765 11.2269 22.4494 11.8188 22.293L14.7991 22.2891C15.7311 22.2888 15.5243 22.879 15.5237 23.5493C15.5234 23.8897 15.5627 25.976 15.4946 26.1298L15.4631 26.1979C15.3907 26.3385 15.257 26.424 15.1102 26.4703ZM12.4854 23.3792L12.4928 25.3688L14.4239 25.365L14.4277 23.3868L12.4854 23.3792Z" fill="black"/>
<path d="M24.1313 25.5751C23.8453 25.5927 23.5487 25.5758 23.2618 25.5749L17.165 25.5755C16.5639 25.5658 16.4409 24.6949 17.0731 24.4722C17.439 24.4503 17.8159 24.4677 18.1827 24.4679L24.118 24.4694C24.1654 24.4712 24.2109 24.4751 24.255 24.4946L24.2754 24.5045C24.7939 24.7465 24.6376 25.4512 24.1313 25.5751Z" fill="black"/>
</svg>
