<svg width="32" height="32" viewBox="0 0 32 32" fill="black" xmlns="http://www.w3.org/2000/svg">
<path d="M1.3999 31V27.9333C1.3999 27.1778 1.57768 26.55 1.93324 26.05C2.28879 25.55 2.78879 25.1444 3.43324 24.8333C4.63324 24.2556 5.91657 23.7778 7.28324 23.4C8.6499 23.0222 10.1999 22.8333 11.9332 22.8333C13.6666 22.8333 15.2166 23.0222 16.5832 23.4C17.9499 23.7778 19.2332 24.2556 20.4332 24.8333C21.0777 25.1444 21.5777 25.55 21.9332 26.05C22.2888 26.55 22.4666 27.1778 22.4666 27.9333V31H1.3999ZM3.3999 29H20.4666V27.9333C20.4666 27.6 20.3721 27.3278 20.1832 27.1167C19.9943 26.9056 19.7666 26.7444 19.4999 26.6333C18.5443 26.2111 17.4777 25.8056 16.2999 25.4167C15.1221 25.0278 13.6666 24.8333 11.9332 24.8333C10.1999 24.8333 8.74435 25.0278 7.56657 25.4167C6.38879 25.8056 5.32212 26.2111 4.36657 26.6333C4.0999 26.7444 3.87212 26.9056 3.68324 27.1167C3.49435 27.3278 3.3999 27.6 3.3999 27.9333V29ZM11.9332 20.8333C10.4666 20.8333 9.26657 20.3556 8.33324 19.4C7.3999 18.4444 6.93324 17.2556 6.93324 15.8333H6.5999C6.42212 15.8333 6.26657 15.7667 6.13324 15.6333C5.9999 15.5 5.93324 15.3444 5.93324 15.1667C5.93324 14.9889 5.9999 14.8333 6.13324 14.7C6.26657 14.5667 6.42212 14.5 6.5999 14.5H6.93324C6.93324 13.6111 7.15546 12.8111 7.5999 12.1C8.04435 11.3889 8.62212 10.8111 9.33324 10.3667V11.6667C9.33324 11.8 9.38324 11.9167 9.48324 12.0167C9.58324 12.1167 9.6999 12.1667 9.83324 12.1667C9.98879 12.1667 10.111 12.1167 10.1999 12.0167C10.2888 11.9167 10.3332 11.8 10.3332 11.6667V9.93333C10.511 9.88889 10.7555 9.85 11.0666 9.81667C11.3777 9.78333 11.6777 9.76667 11.9666 9.76667C12.2555 9.76667 12.5555 9.78333 12.8666 9.81667C13.1777 9.85 13.4221 9.88889 13.5999 9.93333V11.6667C13.5999 11.8 13.6443 11.9167 13.7332 12.0167C13.8221 12.1167 13.9443 12.1667 14.0999 12.1667C14.2332 12.1667 14.3499 12.1167 14.4499 12.0167C14.5499 11.9167 14.5999 11.8 14.5999 11.6667V10.3667C15.311 10.8111 15.8777 11.3889 16.2999 12.1C16.7221 12.8111 16.9332 13.6111 16.9332 14.5H17.2666C17.4443 14.5 17.5999 14.5667 17.7332 14.7C17.8666 14.8333 17.9332 14.9889 17.9332 15.1667C17.9332 15.3444 17.8666 15.5 17.7332 15.6333C17.5999 15.7667 17.4443 15.8333 17.2666 15.8333H16.9332C16.9332 17.2556 16.4666 18.4444 15.5332 19.4C14.5999 20.3556 13.3999 20.8333 11.9332 20.8333ZM11.9332 18.8333C12.8666 18.8333 13.5999 18.5556 14.1332 18C14.6666 17.4444 14.9332 16.7222 14.9332 15.8333H8.93324C8.93324 16.7222 9.1999 17.4444 9.73324 18C10.2666 18.5556 10.9999 18.8333 11.9332 18.8333ZM21.9999 22.9667L21.9332 22C21.7777 21.9111 21.6166 21.8111 21.4499 21.7C21.2832 21.5889 21.1332 21.4778 20.9999 21.3667L20.1332 21.8333L19.3999 20.7667L20.2666 20.1333C20.2221 20.0444 20.1999 19.9611 20.1999 19.8833V19.3833C20.1999 19.3056 20.2221 19.2222 20.2666 19.1333L19.3999 18.5L20.1332 17.4333L20.9999 17.9L21.4666 17.5667C21.6221 17.4556 21.7777 17.3556 21.9332 17.2667L21.9999 16.3H23.3332L23.3999 17.2667C23.5555 17.3556 23.711 17.4556 23.8666 17.5667L24.3332 17.9L25.1999 17.4333L25.9332 18.5L25.0666 19.1333C25.111 19.2222 25.1332 19.3056 25.1332 19.3833V19.8833C25.1332 19.9611 25.111 20.0444 25.0666 20.1333L25.9332 20.7667L25.1999 21.8333L24.3332 21.3667C24.1999 21.4778 24.0499 21.5889 23.8832 21.7C23.7166 21.8111 23.5555 21.9111 23.3999 22L23.3332 22.9667H21.9999ZM22.6666 20.9C23.0221 20.9 23.3221 20.7778 23.5666 20.5333C23.811 20.2889 23.9332 19.9889 23.9332 19.6333C23.9332 19.2778 23.811 18.9778 23.5666 18.7333C23.3221 18.4889 23.0221 18.3667 22.6666 18.3667C22.311 18.3667 22.011 18.4889 21.7666 18.7333C21.5221 18.9778 21.3999 19.2778 21.3999 19.6333C21.3999 19.9889 21.5221 20.2889 21.7666 20.5333C22.011 20.7778 22.311 20.9 22.6666 20.9ZM25.5999 15.7333L25.2999 14.5667C25.0777 14.4778 24.8499 14.3556 24.6166 14.2C24.3832 14.0444 24.1888 13.8778 24.0332 13.7L22.5666 14.2333L21.8999 13.0667L23.0666 12.1333C23.0221 12.0222 22.9832 11.9 22.9499 11.7667C22.9166 11.6333 22.8999 11.5 22.8999 11.3667C22.8999 11.2333 22.9166 11.1 22.9499 10.9667C22.9832 10.8333 23.0221 10.7111 23.0666 10.6L21.8999 9.66667L22.5666 8.5L24.0332 9.03333C24.1888 8.85556 24.3832 8.68333 24.6166 8.51667C24.8499 8.35 25.0777 8.23333 25.2999 8.16667L25.5999 7H26.8666L27.1666 8.16667C27.3888 8.23333 27.6166 8.35 27.8499 8.51667C28.0832 8.68333 28.2777 8.85556 28.4332 9.03333L29.8999 8.5L30.5666 9.66667L29.3999 10.6C29.4443 10.7111 29.4832 10.8333 29.5166 10.9667C29.5499 11.1 29.5666 11.2333 29.5666 11.3667C29.5666 11.5 29.5499 11.6333 29.5166 11.7667C29.4832 11.9 29.4443 12.0222 29.3999 12.1333L30.5666 13.0667L29.8999 14.2333L28.4332 13.7C28.2777 13.8778 28.0832 14.0444 27.8499 14.2C27.6166 14.3556 27.3888 14.4778 27.1666 14.5667L26.8666 15.7333H25.5999ZM26.2332 13.3C26.7888 13.3 27.2499 13.1167 27.6166 12.75C27.9832 12.3833 28.1666 11.9222 28.1666 11.3667C28.1666 10.8111 27.9832 10.35 27.6166 9.98333C27.2499 9.61667 26.7888 9.43333 26.2332 9.43333C25.6777 9.43333 25.2166 9.61667 24.8499 9.98333C24.4832 10.35 24.2999 10.8111 24.2999 11.3667C24.2999 11.9222 24.4832 12.3833 24.8499 12.75C25.2166 13.1167 25.6777 13.3 26.2332 13.3Z" fill="white"/>
</svg>
