<svg width="36" height="36" viewBox="0 0 36 36" fill="none" xmlns="http://www.w3.org/2000/svg">
<path d="M32.9796 16.5024L19.4976 3.02037C18.6708 2.19357 17.3292 2.19357 16.5012 3.02037L3.0204 16.5024C2.1936 17.3292 2.1936 18.6708 3.0204 19.4988L16.5024 32.9808C17.3292 33.8076 18.6708 33.8076 19.4988 32.9808L32.9808 19.4988C33.8064 18.6708 33.8064 17.3292 32.9796 16.5024ZM19.4544 9.59997L19.2144 20.4H16.7856L16.5456 9.59997H19.4544ZM18.0036 26.6268C17.01 26.6268 16.416 26.0976 16.416 25.2084C16.416 24.3024 17.0088 23.7732 18.0036 23.7732C18.99 23.7732 19.5828 24.3024 19.5828 25.2084C19.5828 26.0976 18.99 26.6268 18.0036 26.6268Z" fill="black"/>
</svg>
