<svg viewBox="0 0 32 32" xmlns="http://www.w3.org/2000/svg">
<g clip-path="url(#clip0_709_2110)">
<path fill-rule="evenodd" clip-rule="evenodd" d="M13.5999 24.5333H18.9332C19.2282 24.5333 19.4666 24.2944 19.4666 24C19.4666 23.7056 19.2282 23.4667 18.9332 23.4667H13.5999C13.305 23.4667 13.0666 23.7056 13.0666 24C13.0666 24.2944 13.305 24.5333 13.5999 24.5333ZM13.5999 21.3333H22.1332C22.4282 21.3333 22.6666 21.0944 22.6666 20.8C22.6666 20.5056 22.4282 20.2667 22.1332 20.2667H13.5999C13.305 20.2667 13.0666 20.5056 13.0666 20.8C13.0666 21.0944 13.305 21.3333 13.5999 21.3333ZM13.0666 17.6C13.0666 17.8944 13.305 18.1333 13.5999 18.1333H23.1999C23.4948 18.1333 23.7332 17.8944 23.7332 17.6C23.7332 17.3056 23.4948 17.0667 23.1999 17.0667H13.5999C13.305 17.0667 13.0666 17.3056 13.0666 17.6ZM13.5999 14.9333H21.0666C21.3615 14.9333 21.5999 14.6944 21.5999 14.4C21.5999 14.1056 21.3615 13.8667 21.0666 13.8667H13.5999C13.305 13.8667 13.0666 14.1056 13.0666 14.4C13.0666 14.6944 13.305 14.9333 13.5999 14.9333ZM13.5999 11.7333H22.1332C22.4282 11.7333 22.6666 11.4944 22.6666 11.2C22.6666 10.9056 22.4282 10.6667 22.1332 10.6667H13.5999C13.305 10.6667 13.0666 10.9056 13.0666 11.2C13.0666 11.4944 13.305 11.7333 13.5999 11.7333ZM10.3999 23.4667H9.33324C9.0383 23.4667 8.7999 23.7056 8.7999 24C8.7999 24.2944 9.0383 24.5333 9.33324 24.5333H10.3999C10.6948 24.5333 10.9332 24.2944 10.9332 24C10.9332 23.7056 10.6948 23.4667 10.3999 23.4667ZM10.3999 20.2667H9.33324C9.0383 20.2667 8.7999 20.5056 8.7999 20.8C8.7999 21.0944 9.0383 21.3333 9.33324 21.3333H10.3999C10.6948 21.3333 10.9332 21.0944 10.9332 20.8C10.9332 20.5056 10.6948 20.2667 10.3999 20.2667ZM10.3999 17.0667H9.33324C9.0383 17.0667 8.7999 17.3056 8.7999 17.6C8.7999 17.8944 9.0383 18.1333 9.33324 18.1333H10.3999C10.6948 18.1333 10.9332 17.8944 10.9332 17.6C10.9332 17.3056 10.6948 17.0667 10.3999 17.0667ZM10.3999 13.8667H9.33324C9.0383 13.8667 8.7999 14.1056 8.7999 14.4C8.7999 14.6944 9.0383 14.9333 9.33324 14.9333H10.3999C10.6948 14.9333 10.9332 14.6944 10.9332 14.4C10.9332 14.1056 10.6948 13.8667 10.3999 13.8667ZM9.33324 11.7333H10.3999C10.6948 11.7333 10.9332 11.4944 10.9332 11.2C10.9332 10.9056 10.6948 10.6667 10.3999 10.6667H9.33324C9.0383 10.6667 8.7999 10.9056 8.7999 11.2C8.7999 11.4944 9.0383 11.7333 9.33324 11.7333ZM10.9332 5.33333H21.5999V3.2H18.8794C18.626 3.2 18.4074 3.02133 18.3572 2.7728C18.1562 1.784 17.2772 1.06667 16.2666 1.06667C15.2559 1.06667 14.377 1.784 14.1759 2.7728C14.1258 3.02133 13.9071 3.2 13.6538 3.2H10.9332V5.33333ZM9.86657 5.86667V2.66667C9.86657 2.37227 10.105 2.13333 10.3999 2.13333H13.2495C13.6948 0.874667 14.9007 0 16.2666 0C17.6324 0 18.8383 0.874667 19.2836 2.13333H22.1332C22.4282 2.13333 22.6666 2.37227 22.6666 2.66667V5.86667C22.6666 6.16107 22.4282 6.4 22.1332 6.4H10.3999C10.105 6.4 9.86657 6.16107 9.86657 5.86667ZM16.2666 2.13333C15.6783 2.13333 15.1999 2.61173 15.1999 3.2C15.1999 3.78827 15.6783 4.26667 16.2666 4.26667C16.8548 4.26667 17.3332 3.78827 17.3332 3.2C17.3332 2.61173 16.8548 2.13333 16.2666 2.13333ZM24.2666 29.8667C24.4031 29.8667 24.5396 29.8144 24.6436 29.7104L27.8436 26.5104C27.9439 26.4107 27.9999 26.2747 27.9999 26.1333V4.8C27.9999 4.5056 27.7615 4.26667 27.4666 4.26667H24.2666C23.9716 4.26667 23.7332 4.5056 23.7332 4.8C23.7332 5.0944 23.9716 5.33333 24.2666 5.33333H26.9332V25.9125L23.8895 28.9563C23.681 29.1648 23.681 29.5019 23.8895 29.7104C23.9935 29.8144 24.13 29.8667 24.2666 29.8667ZM8.26657 4.26667H5.06657C4.77164 4.26667 4.53324 4.5056 4.53324 4.8V27.7333C4.53324 28.9099 5.49004 29.8667 6.66657 29.8667H22.1332C22.4282 29.8667 22.6666 29.6277 22.6666 29.3333V26.1333C22.6666 25.8917 22.9044 25.6 23.1999 25.6H25.3332C25.6282 25.6 25.8666 25.3611 25.8666 25.0667C25.8666 24.7723 25.6282 24.5333 25.3332 24.5333H23.1999C22.3476 24.5333 21.5999 25.2811 21.5999 26.1333V28.8H6.66657C6.0783 28.8 5.5999 28.3216 5.5999 27.7333V5.33333H8.26657C8.5615 5.33333 8.7999 5.0944 8.7999 4.8C8.7999 4.5056 8.5615 4.26667 8.26657 4.26667ZM30.1332 4.8V29.3333C30.1332 30.704 28.8372 32 27.4666 32H5.06657C3.6959 32 2.3999 30.704 2.3999 29.3333V4.8C2.3999 3.42933 3.6959 2.13333 5.06657 2.13333H8.26657C8.5615 2.13333 8.7999 2.37227 8.7999 2.66667C8.7999 2.96107 8.5615 3.2 8.26657 3.2H5.06657C4.28897 3.2 3.46657 4.0224 3.46657 4.8V29.3333C3.46657 30.1109 4.28897 30.9333 5.06657 30.9333H27.4666C28.2442 30.9333 29.0666 30.1109 29.0666 29.3333V4.8C29.0666 4.0224 28.2442 3.2 27.4666 3.2H24.2666C23.9716 3.2 23.7332 2.96107 23.7332 2.66667C23.7332 2.37227 23.9716 2.13333 24.2666 2.13333H27.4666C28.8372 2.13333 30.1332 3.42933 30.1332 4.8Z" fill="white"/>
</g>
<defs>
<clipPath id="clip0_709_2110">
<rect width="27.7333" height="32" fill="white" transform="translate(2.3999)"/>
</clipPath>
</defs>
</svg>
