<?xml version="1.0" ?><svg fill="white" data-name="Layer 1" id="Layer_1" viewBox="0 0 512 512" xmlns="http://www.w3.org/2000/svg"><path d="M278.26,72.73c0-16.08-40.82-39.46-104.77-39.46S68.7,56.65,68.7,72.73c0,14.17,31.69,34,82.92,38.49C178.85,90,224.06,75.7,278.24,72.82,278.24,72.79,278.26,72.76,278.26,72.73Z"/><path d="M68.7,268.61c0,11.38,20.49,26.36,55.07,34.18V264.43C101.6,260.09,82.66,253,68.7,243.69Z"/><path d="M68.7,148.19c7.84,11.11,27.88,21.63,55.07,27.71v-16a50.61,50.61,0,0,1,5-21.33c-24-4.08-44.64-11.4-60.06-21.1Z"/><path d="M68.7,213.48c7.84,11.11,27.88,21.63,55.07,27.71V199.14c-22.17-4.33-41.11-11.47-55.07-20.74Z"/><path d="M153.85,292.18v54.39c14.32,25.08,69.71,48.86,144.73,48.86S429,371.65,443.3,346.57V292.18c-30,23.44-83,38.76-144.72,38.76S183.88,315.62,153.85,292.18Z"/><path d="M153.85,379.24v41.87c0,27.2,61.9,57.62,144.73,57.62S443.3,448.31,443.3,421.11V379.24c-30,23.43-83,38.75-144.72,38.75S183.88,402.67,153.85,379.24Z"/><path d="M159.86,144.9h0c-3.89,5-6,10.06-6,15,0,27.2,61.9,57.62,144.73,57.62S443.3,187.14,443.3,159.94s-61.89-57.62-144.72-57.62C230.9,102.32,177.24,122.63,159.86,144.9Z"/><path d="M153.85,210.37v49.15c14.32,25.08,69.71,48.86,144.73,48.86S429,284.6,443.3,259.52V210.37c-30.91,22.83-83.1,37.27-144.72,37.27S184.76,233.2,153.85,210.37Z"/></svg>