<svg viewBox="0 0 500 500" xml:space="preserve" xmlns="http://www.w3.org/2000/svg"><g fill="none" stroke="white" stroke-linecap="round" stroke-linejoin="round" stroke-miterlimit="2.613" stroke-width="10" class="stroke-130b7a"><path d="M25 386.911h391.464v30.121M416.464 417.032c0 7.129-5.825 12.936-12.917 12.936M403.547 429.968H35.337M35.337 429.968c-5.685 0-10.337-4.662-10.337-10.347M25 419.621v-32.71M146.629 181.766H59.633M59.633 181.766c-6.369 0-11.575 5.206-11.575 11.557"></path><path d="M48.058 193.322v193.589h345.348v-71.237M282.104 181.766h-78.431M384.063 181.766h-69.708M393.406 279.192v-63.835M44.005 408.439h126.864M353.163 411.169a2.738 2.738 0 0 0 2.73-2.729 2.72 2.72 0 0 0-2.73-2.729 2.736 2.736 0 0 0-2.748 2.729c0 1.491 1.238 2.729 2.748 2.729M373.66 411.169c1.52 0 2.749-1.238 2.749-2.729a2.73 2.73 0 0 0-2.749-2.729 2.719 2.719 0 0 0-2.721 2.729c0 1.491 1.22 2.729 2.721 2.729M392.469 411.169c1.51 0 2.748-1.238 2.748-2.729a2.735 2.735 0 0 0-2.748-2.729 2.732 2.732 0 0 0-2.73 2.729c-.001 1.491 1.238 2.729 2.73 2.729"></path><path d="M328.492 281.819c0 25.188-20.422 45.618-45.6 45.618s-45.59-20.431-45.59-45.618c0-25.168 20.412-45.6 45.59-45.6s45.6 20.432 45.6 45.6M314.6 101.729c0 17.514-14.202 31.688-31.707 31.688-17.514 0-31.688-14.174-31.688-31.688s14.174-31.697 31.688-31.697c17.504 0 31.707 14.183 31.707 31.697M475 281.819c0 17.514-14.193 31.707-31.707 31.707s-31.697-14.193-31.697-31.707c0-17.495 14.184-31.688 31.697-31.688S475 264.324 475 281.819M445.46 144.083c0 11.735-9.512 21.266-21.266 21.266-11.764 0-21.304-9.53-21.304-21.266 0-11.764 9.54-21.285 21.304-21.285 11.754 0 21.266 9.521 21.266 21.285M120.738 139.187c0 11.763-9.54 21.284-21.284 21.284-11.764 0-21.266-9.521-21.266-21.284 0-11.745 9.502-21.285 21.266-21.285 11.744-.001 21.284 9.539 21.284 21.285M320.162 254.053l90.008-93.582M282.893 234.841V134.205M328.492 281.819h83.104M115.514 153.633l129.172 101.161"></path></g></svg>