<?xml version="1.0" ?><svg fill="white" data-name="Layer 1" id="Layer_1" viewBox="0 0 64 64" xmlns="http://www.w3.org/2000/svg"><title/><polygon points="47 5 43 15 58 15 62 5 47 5"/><rect height="2" width="2" x="15" y="8"/><rect height="2" width="2" x="15" y="4"/><rect height="2" width="2" x="19" y="4"/><rect height="2" width="2" x="23" y="4"/><rect height="2" width="2" x="27" y="4"/><rect height="2" width="2" x="31" y="4"/><rect height="2" width="2" x="35" y="4"/><rect height="2" width="2" x="15" y="54"/><rect height="2" width="2" x="15" y="58"/><rect height="2" width="2" x="19" y="58"/><rect height="2" width="2" x="23" y="58"/><rect height="2" width="2" x="27" y="58"/><rect height="2" width="2" x="31" y="58"/><rect height="2" width="2" x="35" y="58"/><path d="M16,23.5c7.20447,0,12.43146-1.78442,14-3.77228v-.51721C30,16.33282,23.732,14,16,14S2,16.33282,2,19.21051v.51721C3.56854,21.71558,8.79553,23.5,16,23.5Z"/><path d="M16,32c7.20447,0,12.43146-1.78442,14-3.77228v-7.126C27.53674,23.12659,22.2655,24.5,16,24.5S4.46326,23.12659,2,21.10168v7.126C3.56854,30.21558,8.79553,32,16,32Z"/><path d="M30,37.82184V29.60168C27.53674,31.62659,22.2655,33,16,33S4.46326,31.62659,2,29.60168v8.22016C3.99054,39.44562,9.40356,41,16,41S28.00946,39.44562,30,37.82184Z"/><path d="M16,50c6.61774,0,12.71906-1.88666,14-3.78949V39.05927C27.27692,40.80048,21.80957,42,16,42S4.72308,40.80048,2,39.05927v7.15124C3.36932,48.24463,9.29388,50,16,50Z"/><path d="M47,4h8.66663L55,2H41l1.70074,11.05481,3.37055-8.42639A1.00073,1.00073,0,0,1,47,4Z"/><polygon points="47 28 43 38 58 38 62 28 47 28"/><path d="M47,27h8.66663L55,25H41l1.70074,11.05481,3.37055-8.42639A1.00073,1.00073,0,0,1,47,27Z"/><polygon points="47 52 43 62 58 62 62 52 47 52"/><path d="M47,51h8.66663L55,49H41l1.70074,11.05481,3.37055-8.42639A1.00073,1.00073,0,0,1,47,51Z"/></svg>