<svg width="40" height="40" viewBox="0 0 40 40" fill="none" xmlns="http://www.w3.org/2000/svg">
<path d="M36.6667 11.6666H3.33333C2.8913 11.6666 2.46738 11.8422 2.15482 12.1548C1.84226 12.4673 1.66666 12.8913 1.66666 13.3333V26.6666C1.66666 27.1087 1.84226 27.5326 2.15482 27.8451C2.46738 28.1577 2.8913 28.3333 3.33333 28.3333H36.6667C37.1087 28.3333 37.5326 28.1577 37.8452 27.8451C38.1577 27.5326 38.3333 27.1087 38.3333 26.6666V13.3333C38.3333 12.8913 38.1577 12.4673 37.8452 12.1548C37.5326 11.8422 37.1087 11.6666 36.6667 11.6666ZM14.4167 24.1666H12.3333L9.83333 20L9.25 18.9166V24.1666H7.25V15.8333H9.33333L11.8333 20L12.3333 21.0833H12.4167C12.4167 21.0833 12.3333 20.0833 12.3333 19.75V15.8333H14.4167V24.1666ZM22 24.1666H15.5833V15.8333H21.9167V17.5H17.6667V19H21.3333V20.6666H17.6667V22.4166H22V24.1666ZM31.0833 24.1666H29L28.1667 20.1666C28 19.5 27.8333 18.5833 27.8333 18.5833C27.8333 18.5833 27.6667 19.5 27.5833 20.1666L26.6667 24.1666H24.6667L22.3333 15.8333H24.4167L25.25 19.3333C25.4328 20.0182 25.572 20.7141 25.6667 21.4166L26.0833 19.4166L26.9167 15.8333H28.8333L29.5833 19.4166L30 21.4166L30.4167 19.3333L31.25 15.8333H33.3333L31.0833 24.1666Z" fill="black"/>
</svg>
