<svg width="32" height="32" viewBox="0 0 32 32" fill="none" xmlns="http://www.w3.org/2000/svg">
<path d="M32 13.1738V9.39422C32 7.90141 30.7899 6.69128 29.2973 6.69128H2.70263C1.21006 6.69122 0 7.90135 0 9.39416V13.199C1.37231 13.3962 2.42838 14.5733 2.42838 16.0002C2.42838 17.4272 1.37231 18.6044 0 18.801V22.6064C0 24.0987 1.21006 25.3088 2.70263 25.3088H29.2973C30.7898 25.3088 31.9999 24.0987 31.9999 22.6064V18.8262C30.4983 18.756 29.3016 17.5195 29.3016 16.0003C29.3017 14.4811 30.4984 13.2447 32 13.1738ZM7.59469 23.6035H6.66488V21.1784H7.59469V23.6035ZM7.59469 19.3428H6.66488V16.9178H7.59469V19.3428ZM7.59469 15.0823H6.66488V12.6567H7.59469V15.0823ZM7.59469 10.8217H6.66488V8.3966H7.59469V10.8217Z" fill="black"/>
</svg>
