<svg width="36" height="36" viewBox="0 0 36 36" fill="none" xmlns="http://www.w3.org/2000/svg">
<path d="M30.7125 13.6125L33.4125 10.9125C33.6375 10.6875 33.75 10.2375 33.75 9.90004C33.6375 9.56254 33.4125 9.22504 33.075 9.11254L21.825 4.61254C21.375 4.38754 20.925 4.50004 20.5875 4.83754L18 7.42504L15.4125 4.83754C15.075 4.50004 14.625 4.38754 14.175 4.61254L2.925 9.11254C2.5875 9.22504 2.3625 9.56254 2.25 9.90004C2.25 10.2375 2.3625 10.6875 2.5875 10.9125L5.2875 13.6125L2.475 17.325C2.25 17.55 2.25 18 2.25 18.3375C2.3625 18.675 2.5875 18.9 2.925 19.125L14.175 23.625C14.2875 23.625 14.4 23.7375 14.625 23.7375C14.9625 23.7375 15.3 23.625 15.525 23.2875L18 20.025L20.475 23.2875C20.7 23.625 21.0375 23.7375 21.375 23.7375C21.4875 23.7375 21.7125 23.7375 21.825 23.625L33.075 19.125C33.4125 19.0125 33.6375 18.675 33.75 18.3375C33.8625 18 33.75 17.6625 33.525 17.325L30.7125 13.6125ZM18 16.7625L9.7875 13.5L18 10.2375L26.2125 13.5L18 16.7625Z" fill="black"/>
<path d="M21.375 25.875C20.3625 25.875 19.35 25.425 18.675 24.525L18 23.625L17.325 24.525C16.425 25.7625 14.7375 26.2125 13.3875 25.65L5.625 22.5V27C5.625 27.45 5.85 27.9 6.3 28.0125L17.55 32.5125C17.6625 32.5125 17.775 32.625 18 32.625C18.225 32.625 18.3375 32.625 18.45 32.5125L29.7 28.0125C30.15 27.7875 30.375 27.45 30.375 27V22.5L22.6125 25.65C22.275 25.7625 21.825 25.875 21.375 25.875Z" fill="black"/>
</svg>
