<svg width="32" height="32" viewBox="0 0 32 32" fill="none" xmlns="http://www.w3.org/2000/svg">
<g clip-path="url(#clip0_1646_3519)">
<path d="M12.1667 26C12.1667 25.8232 12.0964 25.6536 11.9714 25.5286C11.8464 25.4036 11.6768 25.3333 11.5 25.3333H3.50002C3.32321 25.3333 3.15364 25.2631 3.02862 25.1381C2.90359 25.013 2.83335 24.8435 2.83335 24.6667V6C2.83335 5.82319 2.90359 5.65362 3.02862 5.5286C3.15364 5.40357 3.32321 5.33333 3.50002 5.33333H15.5C15.6768 5.33333 15.8464 5.40357 15.9714 5.5286C16.0964 5.65362 16.1667 5.82319 16.1667 6V14C16.1667 14.3536 16.3072 14.6928 16.5572 14.9428C16.8073 15.1929 17.1464 15.3333 17.5 15.3333C17.8536 15.3333 18.1928 15.1929 18.4428 14.9428C18.6929 14.6928 18.8334 14.3536 18.8334 14V3.33333C18.8334 2.44928 18.4822 1.60143 17.857 0.976311C17.2319 0.351189 16.3841 0 15.5 0L3.50002 0C2.61597 0 1.76812 0.351189 1.143 0.976311C0.517876 1.60143 0.166687 2.44928 0.166687 3.33333V28.6667C0.166687 29.1044 0.252906 29.5379 0.420422 29.9423C0.587938 30.3467 0.833469 30.7142 1.143 31.0237C1.45253 31.3332 1.81999 31.5787 2.22441 31.7463C2.62883 31.9138 3.06228 32 3.50002 32H11.5C11.6768 32 11.8464 31.9298 11.9714 31.8047C12.0964 31.6797 12.1667 31.5101 12.1667 31.3333V26Z" fill="black"/>
<path d="M9.33334 21C9.59856 21 9.85291 20.8946 10.0405 20.7071C10.228 20.5195 10.3333 20.2652 10.3333 20V19.304C10.953 19.2419 11.5337 18.9734 11.9825 18.5417C12.4313 18.11 12.7221 17.5401 12.8082 16.9234C12.8943 16.3066 12.7708 15.6789 12.4574 15.1407C12.144 14.6026 11.6589 14.1854 11.08 13.956L8.32801 12.8546C8.15813 12.7861 8.01738 12.6606 7.92988 12.4997C7.84238 12.3387 7.81358 12.1524 7.84841 11.9725C7.88325 11.7927 7.97955 11.6306 8.12081 11.5139C8.26207 11.3973 8.43949 11.3334 8.62268 11.3333H11.3333C11.5986 11.3333 11.8529 11.2279 12.0405 11.0404C12.228 10.8529 12.3333 10.5985 12.3333 10.3333C12.3333 10.0681 12.228 9.81372 12.0405 9.62619C11.8529 9.43865 11.5986 9.33329 11.3333 9.33329H10.3333V8.66663C10.3333 8.40141 10.228 8.14706 10.0405 7.95952C9.85291 7.77198 9.59856 7.66663 9.33334 7.66663C9.06813 7.66663 8.81377 7.77198 8.62624 7.95952C8.4387 8.14706 8.33334 8.40141 8.33334 8.66663V9.36263C7.7144 9.42565 7.13449 9.69447 6.6864 10.1261C6.23831 10.5577 5.94794 11.1271 5.86176 11.7432C5.77559 12.3594 5.89858 12.9866 6.21106 13.5246C6.52354 14.0626 7.00744 14.4802 7.58534 14.7106L10.3387 15.8133C10.5091 15.8812 10.6505 16.0065 10.7385 16.1675C10.8264 16.3285 10.8555 16.5152 10.8205 16.6953C10.7856 16.8754 10.6889 17.0377 10.5472 17.1541C10.4054 17.2706 10.2275 17.334 10.044 17.3333H7.33334C7.06813 17.3333 6.81377 17.4386 6.62624 17.6262C6.4387 17.8137 6.33334 18.0681 6.33334 18.3333C6.33334 18.5985 6.4387 18.8529 6.62624 19.0404C6.81377 19.2279 7.06813 19.3333 7.33334 19.3333H8.33334V20C8.33334 20.2652 8.4387 20.5195 8.62624 20.7071C8.81377 20.8946 9.06813 21 9.33334 21Z" fill="black"/>
<path d="M31.8333 20C31.8326 19.3813 31.5865 18.7883 31.1491 18.3508C30.7117 17.9134 30.1186 17.6673 29.5 17.6666H16.1666C15.548 17.6673 14.9549 17.9134 14.5175 18.3508C14.0801 18.7883 13.834 19.3813 13.8333 20V29.3333C13.834 29.9519 14.0801 30.545 14.5175 30.9824C14.9549 31.4199 15.548 31.6659 16.1666 31.6666H29.5C30.1186 31.6659 30.7117 31.4199 31.1491 30.9824C31.5865 30.545 31.8326 29.9519 31.8333 29.3333V20ZM29.8333 29.3333C29.8333 29.4217 29.7982 29.5065 29.7357 29.569C29.6732 29.6315 29.5884 29.6666 29.5 29.6666H16.1666C16.0782 29.6666 15.9935 29.6315 15.9309 29.569C15.8684 29.5065 15.8333 29.4217 15.8333 29.3333V25.3333C15.8333 25.2449 15.8684 25.1601 15.9309 25.0976C15.9935 25.0351 16.0782 25 16.1666 25H29.5C29.5884 25 29.6732 25.0351 29.7357 25.0976C29.7982 25.1601 29.8333 25.2449 29.8333 25.3333V29.3333ZM15.8333 20C15.8337 19.9117 15.8689 19.8271 15.9313 19.7646C15.9938 19.7022 16.0783 19.667 16.1666 19.6666H29.5C29.5883 19.667 29.6729 19.7022 29.7353 19.7646C29.7977 19.8271 29.833 19.9117 29.8333 20V21.3333C29.8333 21.4217 29.7982 21.5065 29.7357 21.569C29.6732 21.6315 29.5884 21.6666 29.5 21.6666H16.1666C16.0782 21.6666 15.9935 21.6315 15.9309 21.569C15.8684 21.5065 15.8333 21.4217 15.8333 21.3333V20Z" fill="black"/>
<path d="M27.8334 27.3334C27.8334 27.0682 27.728 26.8138 27.5405 26.6263C27.3529 26.4387 27.0986 26.3334 26.8334 26.3334H25.1667C24.9015 26.3334 24.6471 26.4387 24.4596 26.6263C24.272 26.8138 24.1667 27.0682 24.1667 27.3334C24.1667 27.5986 24.272 27.8529 24.4596 28.0405C24.6471 28.228 24.9015 28.3334 25.1667 28.3334H26.8334C27.0986 28.3334 27.3529 28.228 27.5405 28.0405C27.728 27.8529 27.8334 27.5986 27.8334 27.3334Z" fill="black"/>
</g>
<defs>
<clipPath id="clip0_1646_3519">
<rect width="32" height="32" fill="white"/>
</clipPath>
</defs>
</svg>
