<svg width="32" height="32" viewBox="0 0 32 32" fill="white" xmlns="http://www.w3.org/2000/svg">
<path d="M14.6833 15.3333C13.2944 15.3333 12.1111 14.8437 11.1333 13.8645C10.1556 12.8853 9.66667 11.7083 9.66667 10.3333C9.66667 8.93325 10.1562 7.74992 11.1354 6.78325C12.1146 5.81659 13.2917 5.33325 14.6667 5.33325C16.0667 5.33325 17.25 5.81659 18.2167 6.78325C19.1833 7.74992 19.6667 8.9277 19.6667 10.3166C19.6667 11.7055 19.1833 12.8888 18.2167 13.8666C17.25 14.8444 16.0722 15.3333 14.6833 15.3333ZM14.6667 13.3333C15.5111 13.3333 16.2222 13.0395 16.8 12.452C17.3778 11.8645 17.6667 11.1583 17.6667 10.3333C17.6667 9.48881 17.3778 8.7777 16.8 8.19992C16.2222 7.62214 15.5167 7.33325 14.6833 7.33325C13.85 7.33325 13.1389 7.62214 12.55 8.19992C11.9611 8.7777 11.6667 9.48325 11.6667 10.3166C11.6667 11.1499 11.9604 11.861 12.5479 12.4499C13.1354 13.0388 13.8417 13.3333 14.6667 13.3333ZM29.2333 30.6333L25.2667 26.6666C24.7556 27.0444 24.2278 27.3055 23.6833 27.4499C23.1389 27.5944 22.5826 27.6666 22.0145 27.6666C20.4364 27.6666 19.095 27.1153 17.9903 26.0127C16.8857 24.9101 16.3333 23.5712 16.3333 21.996C16.3333 20.4208 16.8846 19.0833 17.9873 17.9833C19.0899 16.8833 20.4288 16.3333 22.0039 16.3333C23.5791 16.3333 24.9167 16.8856 26.0167 17.9903C27.1167 19.0949 27.6667 20.4363 27.6667 22.0144C27.6667 22.5825 27.5944 23.1388 27.45 23.6833C27.3056 24.2277 27.0444 24.7555 26.6667 25.2666L30.6333 29.2333C30.8333 29.4333 30.9333 29.6666 30.9333 29.9333C30.9333 30.1999 30.8333 30.4333 30.6333 30.6333C30.4333 30.8333 30.2 30.9333 29.9333 30.9333C29.6667 30.9333 29.4333 30.8333 29.2333 30.6333ZM22 25.6666C23.0444 25.6666 23.9167 25.3166 24.6167 24.6166C25.3167 23.9166 25.6667 23.0444 25.6667 21.9999C25.6667 20.9555 25.3167 20.0833 24.6167 19.3833C23.9167 18.6833 23.0444 18.3333 22 18.3333C20.9556 18.3333 20.0833 18.6833 19.3833 19.3833C18.6833 20.0833 18.3333 20.9555 18.3333 21.9999C18.3333 23.0444 18.6833 23.9166 19.3833 24.6166C20.0833 25.3166 20.9556 25.6666 22 25.6666ZM15.9333 26.6666H6C5.45 26.6666 4.97917 26.4708 4.5875 26.0791C4.19583 25.6874 4 25.2166 4 24.6666V23.5379C4 22.7126 4.19444 22.011 4.58333 21.4333C4.97222 20.8555 5.53333 20.3777 6.26667 19.9999C7.31111 19.4888 8.67222 19.0055 10.35 18.5499C12.0278 18.0944 13.7333 17.9221 15.4667 18.0333C15.2889 18.3221 15.1222 18.6388 14.9667 18.9833C14.8111 19.3277 14.6889 19.6666 14.6 19.9999C12.8667 19.9777 11.3556 20.1833 10.0667 20.6166C8.77778 21.0499 7.77778 21.4444 7.06667 21.7999C6.75556 21.9777 6.5 22.2166 6.3 22.5166C6.1 22.8166 6 23.1555 6 23.5333V24.6666H14.6C14.8444 25.0444 15.0667 25.3944 15.2667 25.7166C15.4667 26.0388 15.6889 26.3555 15.9333 26.6666Z" fill="#3D3D3D"/>
</svg>
