<?xml version="1.0" ?><!DOCTYPE svg  PUBLIC '-//W3C//DTD SVG 1.1//EN'  'http://www.w3.org/Graphics/SVG/1.1/DTD/svg11.dtd'><svg height="8.4666mm" style="shape-rendering:geometricPrecision; text-rendering:geometricPrecision; image-rendering:optimizeQuality; fill-rule:evenodd; clip-rule:evenodd" version="1.1" viewBox="0 0 846.66 846.66" width="8.4666mm" xml:space="preserve" xmlns="http://www.w3.org/2000/svg" xmlns:xlink="http://www.w3.org/1999/xlink"><defs><style type="text/css">
   <![CDATA[
    .fil0 {fill:white;fill-rule:nonzero}
   ]]>
  </style></defs><g id="Layer_x0020_1"><path class="fil0" d="M142.28 147.78l196.01 0c11.44,0 20.73,9.29 20.73,20.74l0 129.85c0,11.45 -9.29,20.74 -20.73,20.74l-196.01 0c-11.45,0 -20.74,-9.29 -20.74,-20.74l0 -129.85c0,-11.45 9.29,-20.74 20.74,-20.74zm587.76 223.18l100.7 90.07c20.22,18.08 -7.32,48.86 -27.53,30.77l-100.7 -90.06c-18.93,16.14 -41.02,26.94 -64.17,32.27l0 356.84c0,11.45 -9.28,20.73 -20.73,20.73l-588.03 0c-11.45,0 -20.73,-9.28 -20.73,-20.73l0 -735.04c0,-11.45 9.28,-20.73 20.73,-20.73l588.03 0c11.45,0 20.73,9.28 20.73,20.73l0 82.42c65.63,15.1 113.66,71.98 117.41,139.46 1.8,32.27 -6.67,65.13 -25.71,93.27zm-134.24 -236.37l1.07 -0.05 0 -58 -546.56 0 0 693.57 546.56 0 0 -332.4c-77.4,-3.71 -139.85,-65.45 -144.18,-143.16 -4.66,-83.61 59.5,-155.31 143.11,-159.96zm2.27 41.31c-60.94,3.39 -107.46,55.46 -104.07,116.38 3.39,60.9 55.53,107.46 116.38,104.07 60.47,-3.39 107.45,-55.72 104.07,-116.39 -3.43,-61.59 -56.16,-107.41 -116.38,-104.06zm-475.39 522.97c-27.27,0 -27.27,-41.47 0,-41.47l269.51 0c27.27,0 27.27,41.47 0,41.47l-269.51 0zm0 -284.82c-27.27,0 -27.27,-41.47 0,-41.47l269.51 0c27.27,0 27.27,41.47 0,41.47l-269.51 0zm0 94.94c-27.27,0 -27.27,-41.47 0,-41.47l269.51 0c27.27,0 27.27,41.47 0,41.47l-269.51 0zm0 94.94c-27.27,0 -27.27,-41.47 0,-41.47l269.51 0c27.27,0 27.27,41.47 0,41.47l-269.51 0zm194.87 -414.68l-154.54 0 0 88.39 154.54 0 0 -88.39z"/></g></svg>