<svg width="36" height="36" viewBox="0 0 36 36" fill="none" xmlns="http://www.w3.org/2000/svg">
<path d="M13.5 12.3749C13.215 12.3749 12.93 12.2699 12.705 12.0449L9.75 9.08991L6.795 12.0449C6.36 12.4799 5.64 12.4799 5.205 12.0449C4.77 11.6099 4.77 10.8899 5.205 10.4549L8.955 6.70491C9.39 6.26991 10.11 6.26991 10.545 6.70491L14.295 10.4549C14.73 10.8899 14.73 11.6099 14.295 12.0449C14.07 12.2699 13.785 12.3749 13.5 12.3749Z" fill="black"/>
<path d="M9.75 29.625C9.135 29.625 8.625 29.115 8.625 28.5V7.5C8.625 6.885 9.135 6.375 9.75 6.375C10.365 6.375 10.875 6.885 10.875 7.5V28.5C10.875 29.115 10.365 29.625 9.75 29.625Z" fill="black"/>
<path d="M30 25.875H18C17.385 25.875 16.875 25.365 16.875 24.75C16.875 24.135 17.385 23.625 18 23.625H30C30.615 23.625 31.125 24.135 31.125 24.75C31.125 25.365 30.615 25.875 30 25.875Z" fill="black"/>
<path d="M24 16.875H18C17.385 16.875 16.875 16.365 16.875 15.75C16.875 15.135 17.385 14.625 18 14.625H24C24.615 14.625 25.125 15.135 25.125 15.75C25.125 16.365 24.615 16.875 24 16.875Z" fill="black"/>
<path d="M21 12.375H18C17.385 12.375 16.875 11.865 16.875 11.25C16.875 10.635 17.385 10.125 18 10.125H21C21.615 10.125 22.125 10.635 22.125 11.25C22.125 11.865 21.615 12.375 21 12.375Z" fill="black"/>
<path d="M27 21.375H18C17.385 21.375 16.875 20.865 16.875 20.25C16.875 19.635 17.385 19.125 18 19.125H27C27.615 19.125 28.125 19.635 28.125 20.25C28.125 20.865 27.615 21.375 27 21.375Z" fill="black"/>
</svg>
