<?xml version="1.0" ?><!DOCTYPE svg  PUBLIC '-//W3C//DTD SVG 1.1//EN'  'http://www.w3.org/Graphics/SVG/1.1/DTD/svg11.dtd'><svg fill="white" height="512px" style="enable-background:new 0 0 512 512;" version="1.1" viewBox="0 0 512 512" width="512px" xml:space="preserve" xmlns="http://www.w3.org/2000/svg" xmlns:xlink="http://www.w3.org/1999/xlink"><g id="C_-_91_x2C__checklist_x2C__Check_x2C__file_x2C__list_x2C__page_x2C__task_x2C__testing"><g><rect height="26.38" width="26.557" x="134.986" y="278.561"/><rect height="26.383" width="26.557" x="134.986" y="359.003"/><rect height="26.385" width="26.557" x="134.986" y="117.671"/><rect height="26.385" width="26.557" x="134.986" y="198.113"/><path d="M381.809,99.795c-2.588,0-4.686-2.097-4.686-4.686V46.168H81.044l0.064,419.664h349.849V99.795H381.809z M193.167,117.239    h125.724c2.588,0,4.686,2.098,4.686,4.686s-2.098,4.686-4.686,4.686H193.167c-2.587,0-4.686-2.098-4.686-4.686    S190.58,117.239,193.167,117.239z M170.914,390.071c0,2.588-2.098,4.686-4.685,4.686h-35.928c-2.587,0-4.686-2.098-4.686-4.686    v-35.754c0-2.588,2.098-4.686,4.686-4.686h35.928c2.587,0,4.685,2.098,4.685,4.686V390.071z M170.914,309.626    c0,2.588-2.098,4.686-4.685,4.686h-35.928c-2.587,0-4.686-2.098-4.686-4.686v-35.751c0-2.588,2.098-4.686,4.686-4.686h35.928    c2.587,0,4.685,2.098,4.685,4.686V309.626z M170.914,229.184c0,2.588-2.098,4.685-4.685,4.685h-35.928    c-2.587,0-4.686-2.097-4.686-4.685v-35.756c0-2.588,2.098-4.686,4.686-4.686h35.928c2.587,0,4.685,2.098,4.685,4.686V229.184z     M170.914,148.742c0,2.588-2.098,4.686-4.685,4.686h-35.928c-2.587,0-4.686-2.097-4.686-4.686v-35.756    c0-2.588,2.098-4.686,4.686-4.686h35.928c2.587,0,4.685,2.098,4.685,4.686V148.742z M372.775,394.761H193.167    c-2.587,0-4.686-2.098-4.686-4.686s2.098-4.686,4.686-4.686h179.608c2.588,0,4.686,2.098,4.686,4.686    S375.363,394.761,372.775,394.761z M188.481,363.264c0-2.588,2.098-4.686,4.686-4.686h125.724c2.588,0,4.686,2.098,4.686,4.686    s-2.098,4.686-4.686,4.686H193.167C190.58,367.949,188.481,365.852,188.481,363.264z M372.775,314.313H193.167    c-2.587,0-4.686-2.098-4.686-4.686s2.098-4.686,4.686-4.686h179.608c2.588,0,4.686,2.098,4.686,4.686    S375.363,314.313,372.775,314.313z M188.481,282.818c0-2.588,2.098-4.686,4.686-4.686h125.724c2.588,0,4.686,2.098,4.686,4.686    s-2.098,4.686-4.686,4.686H193.167C190.58,287.504,188.481,285.406,188.481,282.818z M372.775,233.869H193.167    c-2.587,0-4.686-2.097-4.686-4.685c0-2.588,2.098-4.686,4.686-4.686h179.608c2.588,0,4.686,2.097,4.686,4.686    C377.461,231.772,375.363,233.869,372.775,233.869z M188.481,202.371c0-2.588,2.098-4.686,4.686-4.686h125.724    c2.588,0,4.686,2.097,4.686,4.686c0,2.588-2.098,4.686-4.686,4.686H193.167C190.58,207.056,188.481,204.958,188.481,202.371z     M372.775,153.424H193.167c-2.587,0-4.686-2.098-4.686-4.686s2.098-4.686,4.686-4.686h179.608c2.588,0,4.686,2.098,4.686,4.686    S375.363,153.424,372.775,153.424z"/><polygon points="386.494,52.757 386.494,90.424 424.34,90.424   "/></g></g><g id="Layer_1"/></svg>