<?xml version="1.0" ?><!DOCTYPE svg  PUBLIC '-//W3C//DTD SVG 1.0//EN'  'http://www.w3.org/TR/2001/REC-SVG-20010904/DTD/svg10.dtd'><svg height="64px" style="shape-rendering:geometricPrecision; text-rendering:geometricPrecision; image-rendering:optimizeQuality; fill-rule:evenodd; clip-rule:evenodd" version="1.0" viewBox="0 0 10106 13474" width="48px" xml:space="preserve" xmlns="http://www.w3.org/2000/svg" xmlns:xlink="http://www.w3.org/1999/xlink"><defs><style type="text/css">
   <![CDATA[
    .fil0 {fill:white;fill-rule:nonzero}
   ]]>
  </style></defs><g id="Layer_x0020_1"><path class="fil0" d="M1188 6527c72,-548 296,-1051 627,-1464 376,-470 893,-824 1484,-998l118 -35 88 86c203,198 445,358 713,466 257,104 540,162 836,162 296,0 578,-58 835,-162 268,-108 510,-268 713,-466l88 -86 118 35c592,174 1108,529 1484,998 331,413 555,916 627,1464l322 0c237,0 454,97 610,254l0 0 0 0c157,157 254,373 254,610l0 4385c0,293 -120,560 -313,753 -193,193 -460,313 -753,313l-832 0 0 210 1036 0 0 421 -8401 0 0 -421 1056 0 0 -210 -833 0c-293,0 -560,-120 -753,-313 -193,-193 -313,-460 -313,-753l0 -4385c0,-237 97,-454 254,-610l0 0 0 0c157,-157 373,-254 610,-254l322 0zm3444 2947l842 0 0 421 -842 0 0 -421zm3154 3369l-5466 0 0 210 5466 0 0 -210zm708 -6316c-69,-449 -257,-861 -530,-1201 -300,-374 -702,-663 -1163,-823 -222,196 -477,356 -755,468 -307,125 -643,193 -993,193 -351,0 -686,-69 -993,-193 -278,-113 -533,-272 -755,-468 -461,159 -863,449 -1163,823 -273,340 -461,752 -530,1201l6883 0zm746 421l-8374 0c-123,0 -234,50 -314,130l-1 1c-80,80 -130,191 -130,314l0 4385c0,177 73,338 189,455 117,117 278,189 455,189l7974 0c177,0 338,-73 455,-189 117,-117 189,-278 189,-455l0 -4385c0,-123 -50,-234 -130,-314l-1 -1c-80,-80 -191,-130 -314,-130zm-4187 -6948c566,0 1079,230 1450,601 371,371 601,884 601,1450 0,566 -230,1078 -601,1449l-1 1c-371,371 -884,601 -1449,601 -565,0 -1078,-230 -1449,-601l-1 -1c-371,-371 -601,-884 -601,-1449 0,-565 230,-1078 601,-1449l1 -1c371,-371 884,-601 1449,-601zm1153 899c-295,-295 -702,-477 -1153,-477 -451,0 -858,182 -1153,476l-1 1c-294,294 -476,702 -476,1153 0,451 182,858 476,1153l1 1c294,294 702,476 1153,476 450,0 858,-183 1153,-477 294,-295 477,-703 477,-1153 0,-450 -183,-858 -477,-1153z"/></g></svg>