<svg width="32" height="32" viewBox="0 0 32 32" fill="white" xmlns="http://www.w3.org/2000/svg">
<path d="M24 6.00001C23.9982 5.87026 23.946 5.74629 23.8545 5.6543L19.3555 1.15528C19.2716 1.05531 19.0922 1 19.001 1H2.49512C1.67061 1.00435 1 1.65379 1 2.50586C1 10.9997 1.01058 20.0003 1 28.5C1 29.8919 2.12267 31 3.49902 31H22.5C23.8764 31 24.999 29.8921 24.999 28.502V25.999C24.9981 25.7242 24.7758 25.5019 24.501 25.501H24V22.707L26.7373 26.1211C27.5885 27.1824 29.1462 27.2826 30.1475 26.4238C31.15 25.5642 31.3398 23.9507 30.332 22.9941L25.709 18.6084C27.1054 16.0462 26.6255 12.8502 24.5 10.8081V8.00586C24.4991 7.73107 24.2767 7.50878 24.001 7.50781L24 6.00001ZM11 13.5C10.3332 13.5 10.3332 14.5 11 14.5H13.5801C13.5279 14.8348 13.5021 15.1692 13.502 15.5H11C10.3332 15.5 10.3332 16.5 11 16.5H13.5781C13.9275 18.738 15.4355 20.6992 17.6426 21.5586C19.3956 22.2412 21.2965 22.1116 22.8906 21.3223L23 21.46V25.501H5.49903C5.22425 25.5019 5.00098 25.7243 5.00001 25.999V28.502C5.00001 29.324 4.33868 30 3.49903 30C2.65938 30 2.00001 29.324 2.00001 28.502C2.01078 19.837 1.98489 11.4997 2.00001 2.50588C2.00001 2.17232 2.25441 2.00132 2.50196 2.00002C5.9042 2.00002 15.6163 1.99985 18.499 2.00002V6.0088C18.5001 6.28493 18.7249 6.5079 19.001 6.50684H23V7.50391L22.001 7.49996C21.7248 7.49891 21.501 7.7296 21.5 8.00582V9.00387L19.9966 8.99897C17.1531 9.00332 14.6735 10.8515 13.8174 13.5L11 13.5ZM7 4.00001C6.33317 4.00001 6.33317 5.00001 7 5.00001H14.5C15.1668 5.00001 15.1668 4.00001 14.5 4.00001H7ZM7 6.00001C6.33317 6.00001 6.33317 7.00001 7 7.00001H16C16.6668 7.00001 16.6668 6.00001 16 6.00001H7ZM22.5 8.50782H23.5V15.0039H22.5V8.50782ZM20.5 10.0059H21.5L21.499 15.0039H20.499L20.5 10.0059ZM19.5 11.5039L18.001 11.5C17.8895 11.5004 17.7243 11.5804 17.6231 11.6816C15.8307 12.7958 15.0446 15.0102 15.7676 17.0224C16.5026 19.0679 18.6035 20.2982 20.7471 19.9384C22.8906 19.5787 24.4741 17.731 24.501 15.5576C24.4987 14.4889 24.5 13.4151 24.5 12.3447C25.7429 14.1129 25.856 16.487 24.6777 18.3916C23.2806 20.6497 20.4792 21.5885 18.0049 20.625C15.5419 19.6659 14.0998 17.077 14.5976 14.4687C15.0593 12.0499 17.0775 10.2437 19.5 10.0224L19.5 11.5039ZM3.49903 10.5C3.2229 10.5011 2.99993 10.7258 3.00098 11.002V15.999C2.99939 16.2755 3.22251 16.5009 3.49903 16.502H8.99805C9.27647 16.5036 9.50259 16.2775 9.50098 15.999V14.501C9.50098 13.8337 8.5 13.8337 8.5 14.501V15.501H4.00098V11.5H7.00196C7.68358 11.5151 7.68358 10.4849 7.00196 10.5H3.49903ZM8.68848 11.6084L6.53711 13.332L5.85352 12.6455C5.38108 12.1731 4.67307 12.8811 5.14551 13.3535L6.14551 14.3545C6.32596 14.5359 6.61415 14.5511 6.81348 14.3906L9.3125 12.3906C9.70142 12.0728 9.44526 11.4551 8.94727 11.5C8.85233 11.5115 8.76224 11.5476 8.68848 11.6084ZM11 11.5C10.3332 11.5 10.3332 12.5 11 12.5H13C13.6668 12.5 13.6668 11.5 13 11.5H11ZM18.5029 12.5049H19.499V15.0039H18.5029V12.5049ZM17.5029 13.0479V15.5059C17.5039 15.7807 17.7262 16.0029 18.001 16.0039H23.4609C23.2436 17.4932 22.0846 18.7008 20.5811 18.9531C18.9188 19.2321 17.2826 18.2791 16.709 16.6826C16.245 15.3912 16.5803 13.9867 17.5029 13.0479ZM3.49903 17.499C3.2229 17.5001 2.99993 17.7249 3.00098 18.001V22.9981C2.99993 23.2742 3.2229 23.4989 3.49903 23.5H8.99805C9.27609 23.5016 9.50204 23.2761 9.50098 22.9981V21.5C9.50098 20.8327 8.5 20.8327 8.5 21.5V22.5H4.00098V18.499H7.00196C7.68358 18.5141 7.68358 17.4839 7.00196 17.499H3.49903ZM8.94727 18.4981C8.85233 18.5096 8.76224 18.5456 8.68848 18.6064L6.53711 20.3301L5.85352 19.6436C5.38108 19.1711 4.67307 19.8801 5.14551 20.3525L6.14551 21.3525C6.32596 21.534 6.61415 21.5501 6.81348 21.3897L9.3125 19.3887C9.70142 19.0709 9.44526 18.4532 8.94727 18.4981ZM11 18.4999C10.3332 18.4999 10.3332 19.4999 11 19.4999H13C13.6668 19.4999 13.6668 18.4999 13 18.4999H11ZM11 20.4999C10.3332 20.4999 10.3332 21.4999 11 21.4999H14C14.6668 21.4999 14.6668 20.4999 14 20.4999H11ZM11 22.4999C10.3332 22.4999 10.3332 23.4999 11 23.4999H17C17.6668 23.4999 17.6668 22.4999 17 22.4999H11Z" fill="white"/>
</svg>
