<svg xmlns="http://www.w3.org/2000/svg" viewBox="0 0 500 500" xml:space="preserve"><g clip-rule="evenodd" fill-rule="evenodd"><path d="M105.132 391.843V155.512H45.434v226.702c0 5.291 4.338 9.64 9.639 9.64l50.059-.011z" fill="none" stroke="#ffffff" stroke-linecap="round" stroke-linejoin="round" stroke-miterlimit="2.613" stroke-width="10" class="stroke-130b7a"/><path d="M104.777 155.512v236.331c113.792-.03 233.068-.142 346.779-.142a3.82 3.82 0 0 0 2.665-1.085l.031-.03a3.828 3.828 0 0 0 1.084-2.676c0-77.658-.365-154.709-.365-232.398H104.777z" fill="none" stroke="#ffffff" stroke-linecap="round" stroke-linejoin="round" stroke-miterlimit="2.613" stroke-width="10" class="stroke-130b7a"/><path d="M50.724 88.859h398.552c14.148 0 25.724 11.575 25.724 25.734v274.604c0 6.021-2.463 11.494-6.437 15.467l-.04.041c-3.974 3.973-9.446 6.436-15.467 6.436H50.724C36.585 411.141 25 399.566 25 385.417V114.594c0-14.159 11.575-25.735 25.724-25.735z" fill="none" stroke="#ffffff" stroke-linecap="round" stroke-linejoin="round" stroke-miterlimit="2.613" stroke-width="10" class="stroke-130b7a"/><path d="M145.31 193.956h93.207c2.24 0 4.084 1.834 4.084 4.074v63.834a4.1 4.1 0 0 1-4.084 4.085H145.31a4.098 4.098 0 0 1-4.084-4.085V198.03c-.001-2.24 1.843-4.074 4.084-4.074z" fill="none" stroke="#ffffff" stroke-linecap="round" stroke-linejoin="round" stroke-miterlimit="2.613" stroke-width="10" class="stroke-130b7a"/><g fill="#ffffff" class="fill-130b7a"><path d="M75.283 204.608c6.091 0 11.068-4.967 11.068-11.068 0-6.092-4.977-11.068-11.068-11.068-6.102 0-11.068 4.977-11.068 11.068 0 6.102 4.966 11.068 11.068 11.068zM75.283 244.685c6.091 0 11.068-4.977 11.068-11.068 0-6.102-4.977-11.068-11.068-11.068-6.102 0-11.068 4.967-11.068 11.068 0 6.091 4.966 11.068 11.068 11.068zM75.283 284.74c6.091 0 11.068-4.967 11.068-11.068 0-6.091-4.977-11.058-11.068-11.058-6.102 0-11.068 4.967-11.068 11.058 0 6.101 4.966 11.068 11.068 11.068zM75.283 324.816c6.091 0 11.068-4.977 11.068-11.068 0-6.102-4.977-11.068-11.068-11.068-6.102 0-11.068 4.967-11.068 11.068 0 6.092 4.966 11.068 11.068 11.068zM75.283 364.872c6.091 0 11.068-4.967 11.068-11.068 0-6.091-4.977-11.058-11.068-11.058-6.102 0-11.068 4.967-11.068 11.058 0 6.101 4.966 11.068 11.068 11.068z" fill="#ffffff"/></g><path d="M172.078 363.575c16.998 0 30.863-13.866 30.863-30.854 0-16.997-13.865-30.853-30.863-30.853-16.987 0-30.853 13.855-30.853 30.853 0 16.988 13.865 30.854 30.853 30.854zM284.755 363.575c16.997 0 30.853-13.866 30.853-30.854 0-16.997-13.855-30.853-30.853-30.853-16.987 0-30.853 13.855-30.853 30.853 0 16.988 13.866 30.854 30.853 30.854zM397.433 363.575c16.997 0 30.862-13.866 30.862-30.854 0-16.997-13.865-30.853-30.862-30.853-16.987 0-30.853 13.855-30.853 30.853 0 16.988 13.865 30.854 30.853 30.854z" fill="none" stroke="#ffffff" stroke-linecap="round" stroke-linejoin="round" stroke-miterlimit="2.613" stroke-width="10" class="stroke-130b7a"/><path d="M353.799 110.793c6.03 0 10.926 4.886 10.926 10.916s-4.896 10.916-10.926 10.916c-6.021 0-10.916-4.886-10.916-10.916s4.895-10.916 10.916-10.916zM395.709 110.793c6.031 0 10.916 4.886 10.916 10.916s-4.885 10.916-10.916 10.916c-6.03 0-10.926-4.886-10.926-10.916s4.896-10.916 10.926-10.916z" fill="#ffffff" class="fill-130b7a"/><circle cx="437.609" cy="121.709" fill="#ffffff" r="10.916" class="fill-130b7a"/><path fill="none" stroke="#ffffff" stroke-linecap="round" stroke-linejoin="round" stroke-miterlimit="2.613" stroke-width="10" d="M267.596 193.956h160.699M267.596 229.947h160.699M267.596 265.938h160.699" class="stroke-130b7a"/></g></svg>