<?xml version="1.0" ?><svg fill="white" data-name="Layer 1" id="Layer_1" viewBox="0 0 64 64" xmlns="http://www.w3.org/2000/svg"><title/><path d="M45.315,41.047a34.644,34.644,0,0,1-2.631-3.793c-2.454-4.219-.975-9.131.33-13.464a39.712,39.712,0,0,0,1.13-4.3A15.421,15.421,0,0,0,41.03,7.611C38.564,4.639,34.9,3.045,30.435,3h-.206a18.249,18.249,0,0,0-16.241,9.866,1,1,0,0,0,.246,1.159l.52.463a17.759,17.759,0,0,0,.151,7.193l-1.864,1.864a4.973,4.973,0,0,0-1.208,5.117l2.307,6.919A4.993,4.993,0,0,0,18.883,39H21.3c1.581.044,1.965.649,2.091.848,1.093,1.726-.777,5.987-1.8,8.322a108.12,108.12,0,0,0-3.95,11.576A1,1,0,0,0,18.606,61H51a1,1,0,0,0,.994-1.114C50.624,47.974,48.045,44.609,45.315,41.047Zm-29.278-6.1L13.73,28.029a2.985,2.985,0,0,1,.725-3.07l1.9-1.9L28.672,24.82l-.06.18H24v2h4.178c-.011.186-.013.371-.007.556l-4.487,1.5.632,1.9,4.246-1.415c.022.06.041.121.065.181l-5.182,3.454,1.11,1.664,5.112-3.408a6.134,6.134,0,0,0,.611.617L23.667,37H18.883A3,3,0,0,1,16.037,34.948Zm15.678-4.323a4.173,4.173,0,0,1-1.352-4.551l.439-1.317,6.58-2.632ZM19.928,59A103.1,103.1,0,0,1,23.44,48.928c1.315-3,3.3-7.525,1.64-10.151-.049-.077-.111-.142-.165-.213L32.6,32.8a.99.99,0,0,0,.226-.249l.006,0,8-12L40,20l-.372-.929-9.751,3.9L16.833,21.109c-.267-1.365-.764-4.579.005-6.577a1,1,0,0,0-.269-1.106l-.419-.373A16.113,16.113,0,0,1,30.229,5h.187c3.914.039,6.967,1.347,9.075,3.887A13.509,13.509,0,0,1,42.175,19.14,38.434,38.434,0,0,1,41.1,23.213c-1.352,4.49-3.034,10.077-.144,15.047a36.268,36.268,0,0,0,2.773,4C46.2,45.488,48.538,48.541,49.872,59Z"/></svg>