<?xml version="1.0" ?><svg fill="white" data-name="Layer 1" id="Layer_1"  viewBox="0 0 512 512" xmlns="http://www.w3.org/2000/svg"><path d="M256,80.4a5.15,5.15,0,0,0,5.15-5.15V36.86a5.15,5.15,0,1,0-10.3,0V75.25A5.16,5.16,0,0,0,256,80.4Z"/><path d="M196.73,90.3a5.15,5.15,0,1,0,8.39-6L182.83,53.06a5.15,5.15,0,0,0-8.39,6Z"/><path d="M132.07,118.16l34.29,17.25a5.22,5.22,0,0,0,2.31.55A5.15,5.15,0,0,0,171,126.2L136.69,109a5.15,5.15,0,1,0-4.62,9.2Z"/><path d="M308.09,91.5a5.11,5.11,0,0,0,3,1,5.18,5.18,0,0,0,4.2-2.16L337.56,59a5.15,5.15,0,0,0-8.39-6L306.89,84.31A5.15,5.15,0,0,0,308.09,91.5Z"/><path d="M338.73,133.12a5.14,5.14,0,0,0,6.91,2.29l34.3-17.25a5.15,5.15,0,1,0-4.63-9.2L341,126.2A5.15,5.15,0,0,0,338.73,133.12Z"/><path d="M112.8,283.72c.61-.21,60.7-19.83,102.4,11.62a5.15,5.15,0,1,0,6.21-8.22C175.3,252.35,112.18,273.06,109.52,274a5.15,5.15,0,1,0,3.28,9.76Z"/><path d="M215.2,357.18a5.16,5.16,0,1,0,6.21-8.23C175.3,314.19,112.18,334.9,109.52,335.8a5.15,5.15,0,1,0,3.28,9.76C113.41,345.36,173.5,325.72,215.2,357.18Z"/><path d="M289.58,294.33a5.16,5.16,0,0,0,7.22,1c41.71-31.45,101.79-11.82,102.4-11.62a5.15,5.15,0,0,0,3.28-9.76c-2.66-.9-65.78-21.62-111.88,13.16A5.15,5.15,0,0,0,289.58,294.33Z"/><path d="M402.48,335.8c-2.66-.9-65.79-21.61-111.88,13.15a5.15,5.15,0,1,0,6.2,8.23c41.71-31.45,101.79-11.82,102.4-11.62a5.15,5.15,0,0,0,3.28-9.76Z"/><path d="M483.16,188.56c-.6,0-13.85-.71-30.52-.15v-16a5.16,5.16,0,0,0-3.61-4.92c-3-.93-70.4-21.8-132.14-6.87A62.69,62.69,0,0,0,317,147.5a61.28,61.28,0,0,0-122.23,6.27,62.71,62.71,0,0,0,.4,6.87C133.39,145.71,65.92,166.58,63,167.51a5.16,5.16,0,0,0-3.61,4.92v16.14c-18.19.69-32.57,10.77-33.22,11.23A5.19,5.19,0,0,0,24,204V458.14a5.15,5.15,0,0,0,7.21,4.72c1.45-.64,146.12-62.5,203.71,15.35a5.15,5.15,0,0,0,4.14,2.08h34a5.15,5.15,0,0,0,4.14-2.08c57.59-77.85,202.25-16,203.71-15.35a5.15,5.15,0,0,0,7.21-4.72V193.71A5.16,5.16,0,0,0,483.16,188.56ZM222,115.76a51,51,0,0,1,84.67,32.76,51.62,51.62,0,0,1-1.24,17.58,5.06,5.06,0,0,0-.17.67,50.55,50.55,0,0,1-10.38,19.92,53.88,53.88,0,0,0-13.13,34.63V233.6H230.21V222.17a52.93,52.93,0,0,0-12.62-34.9,50.83,50.83,0,0,1-10.88-20.57c0-.14-.07-.29-.11-.43A50.88,50.88,0,0,1,222,115.76ZM69.67,176.3c15.17-4.18,75.46-18.85,127.81-4.42a61.16,61.16,0,0,0,12.35,22.17,42.62,42.62,0,0,1,10.08,28.12v16.58a5.14,5.14,0,0,0,5.15,5.15h61.87a5.14,5.14,0,0,0,5.15-5.15V221.32a43.59,43.59,0,0,1,10.69-28h0a60.9,60.9,0,0,0,11.78-21.47c52.35-14.41,112.59.25,127.76,4.43V407.81C415.84,400.69,319,379.42,261.15,430.7V267.64h25.1a5.15,5.15,0,0,0,0-10.3H225.76a5.15,5.15,0,1,0,0,10.3h25.09V430.72c-57.81-51.29-154.68-30-181.18-22.91ZM477.74,450.48C446.73,438.42,326.53,398,270.42,470H241.58c-56.1-72-176.31-31.56-207.32-19.51V206.86c4.19-2.46,13.9-7.38,25.1-8V414.65a5.16,5.16,0,0,0,6.7,4.91c1.26-.4,126.92-39,186.11,26.95a.12.12,0,0,0,.05.05l.09.09a3.24,3.24,0,0,0,.43.4l.12.1a4.87,4.87,0,0,0,1.23.7l.07,0h.07a4.42,4.42,0,0,0,.81.23l.11,0a6.09,6.09,0,0,0,.85.07,4.57,4.57,0,0,0,.83-.07l.14,0a5,5,0,0,0,.76-.21l.17-.06a4.84,4.84,0,0,0,.72-.36l.11-.06a5.13,5.13,0,0,0,1.11-.93c59.2-65.94,184.84-27.35,186.1-26.95a5.16,5.16,0,0,0,6.7-4.91V198.72c10.47-.36,19.74-.21,25.1-.05Z"/></svg>