<?xml version="1.0" ?><svg height="64" id="svg8" version="1.1" viewBox="0 0 16.933333 16.933333" width="64" xmlns="http://www.w3.org/2000/svg" xmlns:cc="http://creativecommons.org/ns#" xmlns:dc="http://purl.org/dc/elements/1.1/" xmlns:inkscape="http://www.inkscape.org/namespaces/inkscape" xmlns:rdf="http://www.w3.org/1999/02/22-rdf-syntax-ns#" xmlns:sodipodi="http://sodipodi.sourceforge.net/DTD/sodipodi-0.dtd" xmlns:svg="http://www.w3.org/2000/svg"><defs id="defs2"/><g id="layer2"><path d="m 8.4666683,1.0583353 c -7.409e-4,7e-6 -0.0011,5.03e-4 -0.0021,5.16e-4 v 5.16e-4 c -0.1468699,6.8e-5 -0.265974,0.119424 -0.2645827,0.266651 v 1.5880159 c -0.004,0.180376 0.130283,0.268777 0.2645827,0.268718 h 5.293e-4 c 0.00101,-3e-6 0.0031,5.292e-4 0.0041,5.292e-4 v -10e-4 c 0.1343,6e-5 0.2685841,-0.08834 0.2645839,-0.268717 V 1.3255033 c 9.831e-4,-0.148144 -0.1190549,-0.268607 -0.267184,-0.267168 z m 3.5966787,0.958081 c -0.0241,-0.0025 -0.04888,-0.0017 -0.07338,0.0031 -0.0652,0.01283 -0.129571,0.05328 -0.180351,0.1302249 l -0.792716,1.37511 c -0.187191,0.308961 0.286366,0.580941 0.458886,0.263549 l 0.792717,-1.373043 c 0.10641,-0.195742 -0.03661,-0.3813519 -0.205156,-0.3989409 z m -7.1933586,5.159e-4 c -0.16852,0.01759 -0.311555,0.2032 -0.205156,0.398942 l 0.792717,1.373043 c 0.1725099,0.3173931 0.646077,0.04541 0.458887,-0.26355 L 5.1237193,2.1502582 c -0.0508,-0.07695 -0.1151397,-0.1173959 -0.1803497,-0.1302239 -0.024501,-0.0048 -0.04928,-0.0056 -0.07338,-0.0031 z m 3.5997799,1.422136 c -0.00201,7.5e-5 -0.0032,5.027e-4 -0.0052,5.292e-4 -3.44e-4,-2.8e-5 -7.144e-4,0 -0.00101,0 -2.4808201,0 -4.498433,2.0169229 -4.498433,4.4979168 0.003,1.8603099 1.141196,3.5194018 2.910416,4.2028438 v 0.02945 H 6.6119968 c -0.35736,0.0079 -0.3574489,0.521266 0,0.529167 v 0.266134 c -0.3581588,0.01204 -0.345009,0.521466 0,0.529166 v 0.26355 c -0.3596191,0.0077 -0.345009,0.521467 0,0.529167 v 0.529166 c -8.467e-4,0.146321 0.11724,0.265553 0.2635501,0.266134 h 0.5291669 v 0.529167 c 5.821e-4,0.146104 0.119507,0.264105 0.2656171,0.263549 0.5315899,4.4e-5 1.0610871,-5.29e-4 1.592668,-5.29e-4 0.1461094,5.55e-4 0.2650354,-0.117429 0.2656164,-0.26355 v -0.529166 h 0.5291667 c 0.14631,-5.83e-4 0.26439,-0.119813 0.263549,-0.266134 v -0.529166 c 0.345011,-0.0077 0.359621,-0.521508 0,-0.529167 v -0.263549 c 0.345011,-0.0077 0.358161,-0.517124 0,-0.529167 v -0.266133 c 0.357451,-0.0079 0.35736,-0.521235 0,-0.529167 h -0.263549 v -0.02946 c 1.769219,-0.68344 2.907756,-2.3425349 2.910416,-4.2028437 0,-2.4808212 -2.017337,-4.497634 -4.4979161,-4.4979159 z m -0.5069459,1.059367 h 0.9921881 c 0.2558338,0 0.4294309,0.2083041 0.4294309,0.4392491 v 0.0801 c 0.8096196,0.3077591 1.4321276,1.0088589 1.6815506,1.8820551 0.271959,0.07463 0.447518,0.352888 0.447518,0.641305 0,0.3369759 -0.238189,0.6599078 -0.591695,0.6599078 H 6.0115204 c -0.353506,0 -0.591695,-0.3229308 -0.591695,-0.6599078 0,-0.2885861 0.175287,-0.5668651 0.4475181,-0.641305 0.2477888,-0.867382 0.8637438,-1.5649821 1.6655308,-1.875854 v -0.0863 c 0,-0.230936 0.1803512,-0.439249 0.4299481,-0.4392502 z m 6.6631596,0.1307409 c -0.0345,0.0042 -0.0702,0.015711 -0.105421,0.03617 l -1.375109,0.793234 c -0.3059,0.176045 -0.0418,0.6349309 0.264066,0.4588859 l 1.376661,-0.793233 c 0.276299,-0.191073 0.0817,-0.524365 -0.160197,-0.49506 z M 2.3073545,4.6297053 c -0.24186,-0.02934 -0.436497,0.3039769 -0.160197,0.4950489 l 1.37666,0.793233 C 3.8297174,6.0940301 4.0937846,5.6351452 3.7878834,5.4591002 L 2.4127745,4.6658672 c -0.0352,-0.02046 -0.0709,-0.03198 -0.10542,-0.03617 z m 5.754687,0.397909 v 0.7906488 c 0,0.355401 -0.5291672,0.3471682 -0.5291672,0 V 5.6027613 C 7.0341834,5.8572852 6.6336124,6.3149453 6.4280322,6.8791692 h 0.2335782 c 0.360695,-0.008 0.360695,0.5371661 0,0.5291659 h -0.65009 c -0.0091,0 -0.06253,0.03006 -0.06253,0.1328092 0,0.102752 0.05338,0.1307409 0.06253,0.1307409 h 4.9102946 c 0.0091,0 0.06253,-0.02799 0.06253,-0.1307409 0,-0.102738 -0.05343,-0.1328092 -0.06253,-0.1328092 h -0.65009 c -0.3606937,0.008 -0.3606937,-0.5371658 0,-0.5291659 h 0.233578 C 10.297532,6.3089331 9.8916313,5.8479422 9.3854743,5.5950093 l 0.00101,0.2232419 c 8e-7,0.350961 -0.5291661,0.3551449 -0.5291661,0 V 5.0276021 Z m 0.07648,1.058333 h 0.6542238 c 0.3531222,0 0.3531222,0.5296829 0,0.5296829 H 8.1385214 c -0.3550319,-0.0027 -0.3506621,-0.5296829 10e-8,-0.5296829 z m 0,0.793233 h 0.6542238 c 0.3606951,-0.008 0.3606951,0.5371669 0,0.5291669 H 8.1385214 c -0.3607581,0 -0.348942,-0.536867 10e-8,-0.5291669 z M 14.0224,8.2010632 c -0.34042,0.0072 -0.36784,0.5125399 0,0.5296839 h 1.588017 c 0.353098,0 0.353098,-0.5296839 0,-0.5296839 z M 1.3229175,8.2015659 c -0.35310005,0 -0.35310005,0.5296832 0,0.5296832 h 1.588016 c 0.367841,-0.01714 0.34042,-0.522514 0,-0.5296832 z m 4.3583899,0.5291662 h 0.5296829 v 0.22841 h 0.4314992 c 0.1172548,1.8e-5 0.2205148,0.0772 0.2537309,0.189653 0.0353,0.118018 0.08748,0.232478 0.1524449,0.339514 0.06379,0.106397 0.0451,0.242825 -0.04496,0.328145 l -0.293006,0.2754349 0.3260791,0.306442 0.312642,-0.294556 c 0.08263,-0.07824 0.2060311,-0.09488 0.306441,-0.04134 0.115673,0.06143 0.2388218,0.109307 0.36742,0.142627 0.116265,0.03053 0.1973429,0.135592 0.1974041,0.255798 v 0.387057 h 0.4764567 v -0.38499 c 6.02e-5,-0.120206 0.08114,-0.225268 0.1974041,-0.255798 0.128566,-0.03411 0.2515132,-0.08247 0.3669019,-0.144694 0.100539,-0.0538 0.2242341,-0.03714 0.3069581,0.04134 L 9.8805323,10.398331 10.20661,10.091889 9.9177393,9.8185211 c -0.09074,-0.08479 -0.110298,-0.221281 -0.04703,-0.328145 0.06419,-0.10749 0.114408,-0.221724 0.1488277,-0.340031 0.03265,-0.113063 0.136046,-0.190984 0.253732,-0.191203 h 0.435632 v -0.228407 h 0.529167 v 0.494027 c -5.82e-4,0.146119 -0.119497,0.264106 -0.265617,0.26355 l -0.50953,0.0021 c -0.01,0.02433 -0.0237,0.05667 -0.03462,0.08061 l 0.344682,0.327629 c 0.110367,0.1043939 0.110367,0.2800769 0,0.3844729 l -0.710551,0.670243 c -0.1019657,0.09626 -0.2613187,0.09626 -0.3632857,0 L 9.3384454,10.613326 c -0.03274,0.01395 -0.07872,0.03154 -0.1121381,0.04393 v 0.456303 c -5.821e-4,0.145315 -0.118237,0.263023 -0.2635498,0.263553 H 7.9566174 C 7.8113043,11.37653 7.6936504,11.258874 7.6930673,11.113562 l -0.00101,-0.45837 c -0.03366,-0.01224 -0.07709,-0.02905 -0.1100712,-0.04289 l -0.3632812,0.341065 c -0.1019662,0.09626 -0.2613182,0.09626 -0.3632851,0 l -0.711068,-0.670244 c -0.110367,-0.104396 -0.110367,-0.280078 0,-0.3844729 l 0.3477829,-0.327628 c -0.010829,-0.02336 -0.025239,-0.0579 -0.03514,-0.08165 l -0.5121137,-0.001 C 5.7995678,9.4877901 5.681914,9.3701371 5.6813308,9.2248221 Z m 1.7228921,0 h 0.5291669 c 0,0.295384 0.233781,0.529167 0.5291658,0.529167 0.2953862,0 0.5296842,-0.233783 0.5296842,-0.529167 h 0.5291669 c 0,0.581367 -0.4774829,1.058334 -1.0588511,1.058334 -0.5813678,0 -1.0583327,-0.476967 -1.0583327,-1.058334 z m 5.8869785,2.2422399 c -0.26026,-0.01944 -0.399847,0.350367 -0.145727,0.49351 l 1.375109,0.792716 c 0.291781,0.172606 0.572707,-0.25742 0.265618,-0.45682 l -1.376661,-0.795299 c -0.0413,-0.02046 -0.0812,-0.03133 -0.118339,-0.03411 z m -9.6490226,5.29e-4 c -0.0372,0.0028 -0.077,0.01365 -0.118339,0.03411 l -1.37666,0.7953 c -0.30709,0.199401 -0.0262,0.629424 0.265617,0.45682 l 1.3751091,-0.792716 c 0.2541209,-0.143142 0.1145328,-0.51295 -0.1457271,-0.49351 z" id="path1943" style="color:#000000;font-style:normal;font-variant:normal;font-weight:normal;font-stretch:normal;font-size:medium;line-height:normal;font-family:sans-serif;font-variant-ligatures:normal;font-variant-position:normal;font-variant-caps:normal;font-variant-numeric:normal;font-variant-alternates:normal;font-feature-settings:normal;text-indent:0;text-align:start;text-decoration:none;text-decoration-line:none;text-decoration-style:solid;text-decoration-color:#000000;letter-spacing:normal;word-spacing:normal;text-transform:none;writing-mode:lr-tb;direction:ltr;text-orientation:mixed;dominant-baseline:auto;baseline-shift:baseline;text-anchor:start;white-space:normal;shape-padding:0;clip-rule:nonzero;display:inline;overflow:visible;visibility:visible;opacity:1;isolation:auto;mix-blend-mode:normal;color-interpolation:sRGB;color-interpolation-filters:linearRGB;solid-color:white;solid-opacity:1;vector-effect:none;fill:white;fill-opacity:1;fill-rule:nonzero;stroke:none;stroke-width:0.52916664;stroke-linecap:butt;stroke-linejoin:round;stroke-miterlimit:4;stroke-dasharray:none;stroke-dashoffset:0;stroke-opacity:1;color-rendering:auto;image-rendering:auto;shape-rendering:auto;text-rendering:auto;enable-background:accumulate"/></g></svg>