<svg width="32" height="32" viewBox="0 0 32 32" fill="none" xmlns="http://www.w3.org/2000/svg">
<path d="M18.0312 15.2875H13.9688V19.35H18.0312V15.2875Z" fill="black"/>
<path d="M24.4 15.2875H20.3375V19.35H24.4V15.2875Z" fill="black"/>
<path d="M11.6688 21.4625H7.60626V25.525H11.6688V21.4625Z" fill="black"/>
<path d="M18.0312 21.4625H13.9688V25.525H18.0312V21.4625Z" fill="black"/>
<path d="M24.4 21.4625H20.3375V25.525H24.4V21.4625Z" fill="black"/>
<path d="M9.73751 7.73748C8.73751 7.73748 7.91876 6.91873 7.91876 5.91873V1.82498C7.91876 0.824976 8.73751 0.00622559 9.73751 0.00622559C10.7375 0.00622559 11.5563 0.824976 11.5563 1.82498V5.92498C11.5563 6.91873 10.7375 7.73748 9.73751 7.73748Z" fill="black"/>
<path d="M26.9187 3.86877H24.8562V6.35002C24.8562 7.88127 23.625 9.13127 22.1187 9.13127H21.3937C19.8875 9.13127 18.6562 7.88127 18.6562 6.35002V3.86877H13.0062V6.35002C13.0062 7.88127 11.775 9.13127 10.2687 9.13127H9.54374C8.03749 9.13127 6.80624 7.88127 6.80624 6.35002V3.86877H5.22499C3.53124 3.86877 2.14374 5.27502 2.14374 6.99377V28.8688C2.14374 30.5875 3.53124 31.9938 5.22499 31.9938H26.925C28.6187 31.9938 30.0062 30.5875 30.0062 28.8688V6.99377C30 5.27502 28.6125 3.86877 26.9187 3.86877ZM26.3937 25.9188C26.3937 26.9875 25.5312 27.8625 24.4812 27.8625H7.66874C6.61874 27.8625 5.75624 26.9875 5.75624 25.9188V14.8938C5.75624 13.825 6.61874 12.875 7.66874 12.875H24.4812C25.5312 12.875 26.3937 13.825 26.3937 14.8938V25.9188Z" fill="black"/>
<path d="M21.7688 7.73748C20.7688 7.73748 19.95 6.91873 19.95 5.91873V1.82498C19.95 0.824976 20.7688 0.00622559 21.7688 0.00622559C22.7688 0.00622559 23.5875 0.824976 23.5875 1.82498V5.92498C23.5875 6.91873 22.7688 7.73748 21.7688 7.73748Z" fill="black"/>
</svg>
