<svg width="110" height="110" viewBox="0 0 110 110" fill="none" xmlns="http://www.w3.org/2000/svg">
<path d="M55 0C44.122 0 33.4884 3.22569 24.4437 9.26917C15.399 15.3126 8.34947 23.9025 4.18665 33.9524C0.0238308 44.0023 -1.06535 55.061 1.05683 65.73C3.17902 76.3989 8.41726 86.199 16.1092 93.8909C23.801 101.583 33.6011 106.821 44.2701 108.943C54.939 111.065 65.9977 109.976 76.0476 105.813C86.0975 101.651 94.6874 94.6011 100.731 85.5564C106.774 76.5117 110 65.878 110 55C110 40.4131 104.205 26.4236 93.8909 16.1091C83.5764 5.79463 69.5869 0 55 0ZM83.535 43.535L48.535 78.535C47.5974 79.4724 46.3258 79.9989 45 79.9989C43.6742 79.9989 42.4027 79.4724 41.465 78.535L26.465 63.535C25.5542 62.592 25.0503 61.329 25.0617 60.018C25.073 58.707 25.5989 57.4529 26.5259 56.5259C27.453 55.5989 28.707 55.073 30.018 55.0616C31.329 55.0502 32.592 55.5542 33.535 56.465L45 67.93L76.465 36.465C77.408 35.5542 78.671 35.0502 79.982 35.0616C81.293 35.073 82.5471 35.5989 83.4741 36.5259C84.4012 37.4529 84.927 38.707 84.9384 40.018C84.9498 41.329 84.4458 42.592 83.535 43.535Z" fill="#0F5F4B"/>
</svg>
